<svg xmlns="http://www.w3.org/2000/svg" xmlns:xlink="http://www.w3.org/1999/xlink" width="940" zoomAndPan="magnify" viewBox="0 0 705 591.000005" height="788" preserveAspectRatio="xMidYMid meet" version="1.0"><defs><clipPath id="4d1e232192"><path d="M 76.429688 18 L 628.246094 18 L 628.246094 573.152344 L 76.429688 573.152344 Z M 76.429688 18 " clip-rule="nonzero"/></clipPath></defs><g clip-path="url(#4d1e232192)"><path fill="#000000" d="M 298.929688 135.667969 L 289.667969 189.601562 C 289.078125 193.347656 290.554688 196.996094 293.609375 199.261719 C 296.664062 201.433594 300.703125 201.726562 303.957031 200.050781 L 352.238281 174.613281 L 400.523438 200.050781 C 402 200.839844 403.578125 201.234375 405.15625 201.234375 C 407.222656 201.234375 409.195312 200.644531 410.96875 199.363281 C 414.023438 197.191406 415.5 193.445312 414.910156 189.699219 L 405.648438 135.769531 L 444.769531 97.613281 C 447.429688 94.949219 448.414062 91.105469 447.230469 87.554688 C 446.046875 84.007812 442.992188 81.34375 439.25 80.851562 L 385.25 72.964844 L 361.109375 23.863281 C 357.757812 17.160156 346.722656 17.160156 343.46875 23.863281 L 319.328125 72.964844 L 265.328125 80.851562 C 261.585938 81.441406 258.53125 84.007812 257.347656 87.554688 C 256.164062 91.105469 257.148438 95.046875 259.8125 97.613281 L 298.929688 135.769531 Z M 327.308594 91.597656 C 330.5625 91.105469 333.320312 89.132812 334.699219 86.175781 L 352.339844 50.386719 L 369.976562 86.175781 C 371.453125 89.132812 374.214844 91.105469 377.367188 91.597656 L 416.78125 97.316406 L 388.207031 125.21875 C 385.839844 127.484375 384.855469 130.738281 385.347656 133.894531 L 392.050781 173.234375 L 356.773438 154.699219 C 355.292969 153.910156 353.71875 153.515625 352.140625 153.515625 C 350.566406 153.515625 348.988281 153.910156 347.511719 154.699219 L 312.234375 173.234375 L 318.933594 133.894531 C 319.523438 130.738281 318.441406 127.488281 316.074219 125.21875 L 287.5 97.316406 L 326.914062 91.597656 Z M 362.980469 306.929688 L 362.980469 366.085938 C 362.980469 371.507812 358.546875 375.945312 353.125 375.945312 C 347.707031 375.945312 343.273438 371.507812 343.273438 366.085938 L 343.273438 327.632812 L 337.953125 331.972656 C 333.714844 335.421875 327.507812 334.734375 324.058594 330.492188 C 320.609375 326.253906 321.296875 320.042969 325.535156 316.589844 L 346.917969 299.238281 C 349.875 296.871094 353.914062 296.378906 357.363281 297.957031 C 360.8125 299.632812 362.980469 303.085938 362.980469 306.832031 Z M 608.539062 297.070312 L 450.878906 297.070312 L 450.878906 267.492188 C 450.878906 256.644531 442.007812 247.773438 431.167969 247.773438 L 273.507812 247.773438 C 262.667969 247.773438 253.800781 256.644531 253.800781 267.492188 L 253.800781 326.648438 L 96.136719 326.648438 C 85.296875 326.648438 76.429688 335.523438 76.429688 346.367188 L 76.429688 563.277344 C 76.429688 568.699219 80.863281 573.136719 86.285156 573.136719 L 618.394531 573.136719 C 623.8125 573.136719 628.246094 568.699219 628.246094 563.277344 L 628.246094 316.789062 C 628.246094 305.945312 619.378906 297.070312 608.539062 297.070312 Z M 96.136719 346.367188 L 253.800781 346.367188 L 253.800781 553.417969 L 96.136719 553.417969 Z M 273.507812 267.492188 L 431.167969 267.492188 L 431.167969 553.417969 L 273.507812 553.417969 Z M 608.539062 553.417969 L 450.878906 553.417969 L 450.878906 316.789062 L 608.539062 316.789062 Z M 502.019531 374.761719 C 502.019531 365.890625 505.960938 357.605469 512.859375 352.183594 C 519.460938 346.957031 528.03125 345.085938 536.308594 347.15625 C 546.261719 349.523438 554.242188 357.707031 556.609375 367.859375 C 556.609375 368.15625 556.804688 368.648438 556.804688 368.945312 C 558.480469 376.339844 555.820312 385.3125 549.613281 391.523438 L 535.621094 405.523438 L 547.542969 405.523438 C 552.964844 405.523438 557.398438 409.960938 557.398438 415.382812 C 557.398438 420.804688 552.964844 425.242188 547.542969 425.242188 L 511.871094 425.242188 C 507.929688 425.242188 504.285156 422.878906 502.808594 419.128906 C 501.328125 415.484375 502.117188 411.242188 504.976562 408.382812 L 535.71875 377.523438 C 537.195312 376.042969 537.789062 374.074219 537.492188 372.394531 C 536.800781 369.4375 534.4375 366.875 531.777344 366.285156 C 528.722656 365.496094 526.457031 366.578125 525.175781 367.664062 C 523.105469 369.339844 521.824219 371.902344 521.824219 374.761719 C 521.824219 380.183594 517.390625 384.621094 511.972656 384.621094 C 506.550781 384.621094 502.117188 380.183594 502.117188 374.761719 Z M 200.292969 399.804688 C 200.292969 405.621094 198.222656 411.046875 194.875 415.285156 C 198.324219 419.625 200.292969 424.949219 200.292969 430.765625 C 200.292969 444.765625 188.664062 456.105469 174.378906 456.105469 C 163.636719 456.105469 154.175781 449.792969 150.234375 439.933594 C 148.167969 434.90625 150.628906 429.1875 155.753906 427.117188 C 160.78125 425.144531 166.496094 427.511719 168.5625 432.636719 C 169.449219 434.90625 171.816406 436.382812 174.378906 436.382812 C 177.828125 436.382812 180.585938 433.820312 180.585938 430.765625 C 180.585938 427.707031 177.828125 425.144531 174.378906 425.144531 C 168.957031 425.144531 164.523438 420.707031 164.523438 415.285156 C 164.523438 409.863281 168.957031 405.425781 174.378906 405.425781 C 177.828125 405.425781 180.585938 402.863281 180.585938 399.804688 C 180.585938 396.75 177.828125 394.1875 174.378906 394.1875 C 171.816406 394.1875 169.449219 395.664062 168.5625 397.933594 C 166.496094 402.960938 160.78125 405.425781 155.753906 403.453125 C 150.726562 401.382812 148.265625 395.664062 150.234375 390.636719 C 154.175781 380.875 163.636719 374.46875 174.378906 374.46875 C 188.664062 374.46875 200.292969 385.804688 200.292969 399.804688 Z M 490.292969 109.640625 L 510 109.640625 C 515.417969 109.640625 519.855469 114.078125 519.855469 119.5 C 519.855469 124.921875 515.417969 129.359375 510 129.359375 L 490.292969 129.359375 C 484.871094 129.359375 480.4375 124.921875 480.4375 119.5 C 480.4375 114.078125 484.871094 109.640625 490.292969 109.640625 Z M 461.519531 58.570312 C 458.761719 53.835938 460.433594 47.820312 465.164062 45.0625 L 482.210938 35.203125 C 486.941406 32.441406 492.953125 34.117188 495.710938 38.847656 C 498.472656 43.582031 496.796875 49.597656 492.066406 52.355469 L 475.019531 62.214844 C 473.441406 63.105469 471.765625 63.5 470.09375 63.5 C 466.644531 63.5 463.390625 61.722656 461.519531 58.570312 Z M 461.519531 180.53125 C 464.277344 175.796875 470.289062 174.21875 475.019531 176.882812 L 492.066406 186.742188 C 496.796875 189.503906 498.371094 195.515625 495.710938 200.25 C 493.839844 203.40625 490.589844 205.179688 487.140625 205.179688 C 485.464844 205.179688 483.789062 204.785156 482.210938 203.898438 L 465.164062 194.039062 C 460.433594 191.277344 458.859375 185.261719 461.519531 180.53125 Z M 184.824219 119.597656 C 184.824219 114.175781 189.257812 109.738281 194.675781 109.738281 L 214.382812 109.738281 C 219.804688 109.738281 224.238281 114.175781 224.238281 119.597656 C 224.238281 125.019531 219.804688 129.457031 214.382812 129.457031 L 194.675781 129.457031 C 189.257812 129.457031 184.824219 125.019531 184.824219 119.597656 Z M 209.0625 38.949219 C 211.824219 34.214844 217.832031 32.636719 222.5625 35.300781 L 239.609375 45.160156 C 244.339844 47.921875 245.917969 53.933594 243.257812 58.667969 C 241.382812 61.820312 238.132812 63.597656 234.683594 63.597656 C 233.007812 63.597656 231.332031 63.203125 229.757812 62.316406 L 212.710938 52.457031 C 207.980469 49.695312 206.402344 43.679688 209.0625 38.949219 Z M 243.15625 180.628906 C 245.917969 185.363281 244.242188 191.375 239.511719 194.136719 L 222.464844 203.996094 C 220.886719 204.882812 219.210938 205.277344 217.539062 205.277344 C 214.089844 205.277344 210.835938 203.503906 208.964844 200.347656 C 206.207031 195.617188 207.878906 189.601562 212.609375 186.839844 L 229.65625 176.980469 C 234.386719 174.21875 240.398438 175.894531 243.15625 180.628906 Z M 243.15625 180.628906 " fill-opacity="1" fill-rule="nonzero"/></g></svg>