<svg xmlns="http://www.w3.org/2000/svg" xmlns:xlink="http://www.w3.org/1999/xlink" width="940" zoomAndPan="magnify" viewBox="0 0 705 591.000005" height="788" preserveAspectRatio="xMidYMid meet" version="1.0"><defs><clipPath id="8687ab5d46"><path d="M 352 394 L 391 394 L 391 576.015625 L 352 576.015625 Z M 352 394 " clip-rule="nonzero"/></clipPath><clipPath id="216ba4e799"><path d="M 225 13.714844 L 453 13.714844 L 453 211 L 225 211 Z M 225 13.714844 " clip-rule="nonzero"/></clipPath></defs><path fill="#000000" d="M 263.921875 382.820312 L 478.699219 382.820312 L 478.699219 410.273438 L 263.921875 410.273438 Z M 263.921875 382.820312 " fill-opacity="1" fill-rule="evenodd"/><g clip-path="url(#8687ab5d46)"><path fill="#000000" d="M 352.480469 394.003906 L 390.140625 394.003906 L 390.140625 576.015625 L 352.480469 576.015625 Z M 352.480469 394.003906 " fill-opacity="1" fill-rule="evenodd"/></g><path fill="#000000" d="M 218.113281 424.507812 C 216.078125 445.863281 196.738281 461.113281 175.363281 458.0625 C 153.988281 456.03125 138.71875 436.710938 141.773438 415.359375 L 155.003906 304.523438 C 157.039062 283.171875 176.378906 267.921875 197.757812 270.96875 C 219.132812 273.003906 234.402344 292.324219 231.347656 313.675781 Z M 218.113281 424.507812 " fill-opacity="1" fill-rule="nonzero"/><path fill="#000000" d="M 204.882812 172.339844 C 227.277344 172.339844 245.597656 190.640625 245.597656 213.011719 C 245.597656 235.382812 227.277344 253.683594 204.882812 253.683594 C 182.488281 253.683594 164.164062 235.382812 164.164062 213.011719 C 164.164062 190.640625 182.488281 172.339844 204.882812 172.339844 Z M 204.882812 172.339844 " fill-opacity="1" fill-rule="evenodd"/><path fill="#000000" d="M 195.722656 306.558594 C 189.613281 299.441406 190.632812 289.273438 196.738281 284.1875 C 203.863281 278.089844 214.042969 279.105469 219.132812 285.207031 L 259.847656 331.980469 L 298.53125 331.980469 C 307.691406 331.980469 314.816406 339.097656 314.816406 348.25 C 314.816406 357.398438 307.691406 364.515625 298.53125 364.515625 L 252.722656 364.515625 C 248.652344 364.515625 243.5625 362.484375 240.507812 359.433594 L 194.703125 307.574219 Z M 195.722656 306.558594 " fill-opacity="1" fill-rule="nonzero"/><path fill="#000000" d="M 176.378906 458.0625 C 166.203125 456.03125 157.039062 434.675781 158.058594 424.507812 C 160.09375 414.339844 170.273438 407.222656 180.453125 409.257812 C 180.453125 409.257812 286.316406 426.542969 332.121094 543.476562 C 336.191406 553.644531 331.101562 564.828125 320.921875 567.878906 C 310.746094 571.949219 299.546875 566.863281 296.492188 556.695312 C 259.847656 460.097656 177.398438 458.0625 177.398438 458.0625 Z M 176.378906 458.0625 " fill-opacity="1" fill-rule="nonzero"/><path fill="#000000" d="M 215.0625 479.417969 C 218.113281 480.433594 220.152344 484.5 219.132812 487.550781 C 218.113281 490.601562 214.042969 492.636719 210.988281 491.621094 C 210.988281 491.621094 200.8125 488.570312 187.578125 485.519531 C 178.417969 483.484375 168.238281 483.484375 159.078125 483.484375 C 134.648438 483.484375 114.289062 483.484375 108.179688 455.015625 C 107.164062 449.929688 106.144531 443.828125 105.128906 436.710938 C 105.128906 430.609375 104.109375 423.492188 104.109375 416.375 C 104.109375 407.222656 104.109375 399.089844 104.109375 391.972656 C 104.109375 362.484375 104.109375 339.097656 98 304.523438 C 96.984375 301.476562 100.039062 297.40625 103.089844 297.40625 C 106.144531 296.390625 110.214844 299.441406 110.214844 302.492188 C 116.324219 338.082031 116.324219 361.46875 116.324219 391.972656 C 116.324219 400.105469 116.324219 407.222656 116.324219 416.375 C 116.324219 422.476562 116.324219 429.59375 117.34375 435.695312 C 117.34375 441.796875 118.359375 446.878906 119.378906 451.964844 C 123.449219 470.265625 139.734375 470.265625 158.058594 470.265625 C 168.238281 470.265625 178.417969 470.265625 188.59375 472.300781 C 202.847656 475.351562 213.027344 478.402344 213.027344 478.402344 Z M 215.0625 479.417969 " fill-opacity="1" fill-rule="nonzero"/><path fill="#000000" d="M 151.949219 477.382812 L 168.238281 477.382812 L 168.238281 570.929688 L 151.949219 570.929688 Z M 151.949219 477.382812 " fill-opacity="1" fill-rule="nonzero"/><path fill="#000000" d="M 189.613281 558.730469 C 193.683594 558.730469 197.757812 562.796875 197.757812 566.863281 C 197.757812 570.929688 193.683594 575 189.613281 575 L 130.574219 575 C 126.503906 575 122.429688 570.929688 122.429688 566.863281 C 122.429688 562.796875 126.503906 558.730469 130.574219 558.730469 Z M 189.613281 558.730469 " fill-opacity="1" fill-rule="nonzero"/><path fill="#000000" d="M 524.503906 424.507812 C 526.542969 445.863281 545.882812 461.113281 567.257812 458.0625 C 588.632812 456.03125 603.902344 436.710938 600.847656 415.359375 L 587.617188 304.523438 C 585.582031 283.171875 566.238281 267.921875 544.863281 270.96875 C 523.488281 273.003906 508.21875 292.324219 511.273438 313.675781 Z M 524.503906 424.507812 " fill-opacity="1" fill-rule="nonzero"/><path fill="#000000" d="M 537.738281 172.339844 C 515.34375 172.339844 497.023438 190.640625 497.023438 213.011719 C 497.023438 235.382812 515.34375 253.683594 537.738281 253.683594 C 560.132812 253.683594 578.453125 235.382812 578.453125 213.011719 C 578.453125 190.640625 560.132812 172.339844 537.738281 172.339844 Z M 537.738281 172.339844 " fill-opacity="1" fill-rule="evenodd"/><path fill="#000000" d="M 546.898438 306.558594 C 553.007812 299.441406 551.988281 289.273438 545.882812 284.1875 C 538.757812 278.089844 528.578125 279.105469 523.488281 285.207031 L 482.769531 331.980469 L 444.089844 331.980469 C 434.929688 331.980469 427.804688 339.097656 427.804688 348.25 C 427.804688 357.398438 434.929688 364.515625 444.089844 364.515625 L 489.898438 364.515625 C 493.96875 364.515625 499.058594 362.484375 502.113281 359.433594 L 547.917969 307.574219 Z M 546.898438 306.558594 " fill-opacity="1" fill-rule="nonzero"/><path fill="#000000" d="M 567.257812 458.0625 C 577.4375 456.03125 586.597656 434.675781 585.582031 424.507812 C 583.542969 414.339844 573.363281 407.222656 563.1875 409.257812 C 563.1875 409.257812 457.324219 426.542969 411.519531 543.476562 C 407.445312 553.644531 412.535156 564.828125 422.714844 567.878906 C 432.894531 571.949219 444.089844 566.863281 447.144531 556.695312 C 483.789062 460.097656 566.238281 458.0625 566.238281 458.0625 Z M 567.257812 458.0625 " fill-opacity="1" fill-rule="nonzero"/><path fill="#000000" d="M 527.558594 479.417969 C 524.503906 480.433594 522.46875 484.5 523.488281 487.550781 C 524.503906 490.601562 528.578125 492.636719 531.632812 491.621094 C 531.632812 491.621094 541.808594 488.570312 555.042969 485.519531 C 564.203125 483.484375 574.382812 483.484375 583.542969 483.484375 C 607.972656 483.484375 628.332031 483.484375 634.441406 455.015625 C 635.457031 449.929688 636.476562 443.828125 637.492188 436.710938 C 637.492188 430.609375 638.511719 423.492188 638.511719 416.375 C 638.511719 407.222656 638.511719 399.089844 638.511719 391.972656 C 638.511719 362.484375 638.511719 339.097656 644.617188 304.523438 C 645.636719 301.476562 642.582031 297.40625 639.527344 297.40625 C 636.476562 296.390625 632.402344 299.441406 632.402344 302.492188 C 626.296875 338.082031 626.296875 361.46875 626.296875 391.972656 C 626.296875 400.105469 626.296875 407.222656 626.296875 416.375 C 626.296875 422.476562 626.296875 429.59375 625.277344 435.695312 C 625.277344 441.796875 624.261719 446.878906 623.242188 451.964844 C 619.171875 470.265625 602.882812 470.265625 584.5625 470.265625 C 574.382812 470.265625 564.203125 470.265625 554.023438 472.300781 C 539.773438 475.351562 529.59375 478.402344 529.59375 478.402344 Z M 527.558594 479.417969 " fill-opacity="1" fill-rule="nonzero"/><path fill="#000000" d="M 574.382812 477.382812 L 574.382812 570.929688 L 590.667969 570.929688 L 590.667969 477.382812 Z M 574.382812 477.382812 " fill-opacity="1" fill-rule="nonzero"/><path fill="#000000" d="M 553.007812 558.730469 C 548.933594 558.730469 544.863281 562.796875 544.863281 566.863281 C 544.863281 570.929688 548.933594 575 553.007812 575 L 612.046875 575 C 616.117188 575 620.1875 570.929688 620.1875 566.863281 C 620.1875 562.796875 616.117188 558.730469 612.046875 558.730469 Z M 553.007812 558.730469 " fill-opacity="1" fill-rule="nonzero"/><path fill="#000000" d="M 300.566406 199.792969 C 303.621094 200.808594 306.671875 200.808594 308.707031 200.808594 L 398.285156 200.808594 L 446.125 248.601562 L 446.125 200.808594 C 470.554688 200.808594 490.914062 180.472656 490.914062 156.070312 L 490.914062 96.078125 C 490.914062 77.777344 479.71875 61.507812 464.449219 54.390625 C 464.449219 56.421875 464.449219 57.4375 464.449219 59.472656 L 464.449219 73.707031 C 470.554688 78.792969 474.628906 86.925781 474.628906 96.078125 L 474.628906 156.070312 C 474.628906 172.339844 461.394531 185.558594 445.109375 185.558594 L 428.820312 185.558594 L 428.820312 210.976562 L 403.375 185.558594 L 313.796875 185.558594 L 298.53125 200.808594 Z M 300.566406 199.792969 " fill-opacity="1" fill-rule="evenodd"/><g clip-path="url(#216ba4e799)"><path fill="#000000" d="M 270.027344 13.714844 L 407.445312 13.714844 C 431.875 13.714844 452.234375 34.050781 452.234375 58.457031 L 452.234375 118.449219 C 452.234375 142.851562 431.875 163.1875 407.445312 163.1875 L 317.871094 163.1875 L 270.027344 210.976562 L 270.027344 163.1875 C 245.597656 163.1875 225.242188 142.851562 225.242188 118.449219 L 225.242188 58.457031 C 225.242188 34.050781 245.597656 13.714844 270.027344 13.714844 Z M 285.296875 71.675781 C 294.457031 71.675781 302.601562 79.808594 302.601562 88.960938 C 302.601562 98.113281 294.457031 106.246094 285.296875 106.246094 C 276.136719 106.246094 267.992188 98.113281 267.992188 88.960938 C 267.992188 79.808594 276.136719 71.675781 285.296875 71.675781 Z M 339.246094 71.675781 C 348.40625 71.675781 356.550781 79.808594 356.550781 88.960938 C 356.550781 98.113281 348.40625 106.246094 339.246094 106.246094 C 330.085938 106.246094 321.941406 98.113281 321.941406 88.960938 C 321.941406 79.808594 330.085938 71.675781 339.246094 71.675781 Z M 393.195312 71.675781 C 402.355469 71.675781 410.5 79.808594 410.5 88.960938 C 410.5 98.113281 402.355469 106.246094 393.195312 106.246094 C 384.035156 106.246094 375.890625 98.113281 375.890625 88.960938 C 375.890625 79.808594 384.035156 71.675781 393.195312 71.675781 Z M 393.195312 71.675781 " fill-opacity="1" fill-rule="evenodd"/></g></svg>