<svg xmlns="http://www.w3.org/2000/svg" xmlns:xlink="http://www.w3.org/1999/xlink" width="940" zoomAndPan="magnify" viewBox="0 0 705 591.000005" height="788" preserveAspectRatio="xMidYMid meet" version="1.0"><defs><clipPath id="ca9bcb9a30"><path d="M 218 26.738281 L 501 26.738281 L 501 124 L 218 124 Z M 218 26.738281 " clip-rule="nonzero"/></clipPath><clipPath id="ddef6af1a3"><path d="M 27.695312 515 L 691 515 L 691 552.347656 L 27.695312 552.347656 Z M 27.695312 515 " clip-rule="nonzero"/></clipPath></defs><path fill="#000000" d="M 248.476562 81.777344 C 248.476562 79.878906 246.941406 78.269531 244.96875 78.269531 C 243.066406 78.269531 241.457031 79.804688 241.457031 81.777344 L 241.457031 141.640625 C 241.457031 143.539062 242.992188 145.148438 244.96875 145.148438 C 246.867188 145.148438 248.476562 143.613281 248.476562 141.640625 Z M 248.476562 81.777344 " fill-opacity="1" fill-rule="nonzero"/><path fill="#000000" d="M 252.425781 143.761719 C 252.425781 144.25 252.378906 144.734375 252.28125 145.214844 C 252.1875 145.695312 252.042969 146.160156 251.855469 146.613281 C 251.667969 147.066406 251.441406 147.496094 251.167969 147.902344 C 250.894531 148.308594 250.585938 148.6875 250.242188 149.03125 C 249.894531 149.378906 249.519531 149.6875 249.109375 149.960938 C 248.703125 150.230469 248.273438 150.460938 247.820312 150.648438 C 247.367188 150.835938 246.902344 150.976562 246.421875 151.074219 C 245.941406 151.167969 245.457031 151.214844 244.96875 151.214844 C 244.476562 151.214844 243.992188 151.167969 243.511719 151.074219 C 243.03125 150.976562 242.566406 150.835938 242.113281 150.648438 C 241.660156 150.460938 241.230469 150.230469 240.824219 149.960938 C 240.417969 149.6875 240.039062 149.378906 239.695312 149.03125 C 239.347656 148.6875 239.039062 148.308594 238.765625 147.902344 C 238.496094 147.496094 238.265625 147.066406 238.078125 146.613281 C 237.890625 146.160156 237.75 145.695312 237.652344 145.214844 C 237.558594 144.734375 237.511719 144.25 237.511719 143.761719 C 237.511719 143.269531 237.558594 142.785156 237.652344 142.304688 C 237.75 141.824219 237.890625 141.359375 238.078125 140.90625 C 238.265625 140.453125 238.496094 140.023438 238.765625 139.617188 C 239.039062 139.210938 239.347656 138.835938 239.695312 138.488281 C 240.039062 138.140625 240.417969 137.832031 240.824219 137.5625 C 241.230469 137.289062 241.660156 137.058594 242.113281 136.871094 C 242.566406 136.683594 243.03125 136.542969 243.511719 136.449219 C 243.992188 136.351562 244.476562 136.304688 244.96875 136.304688 C 245.457031 136.304688 245.941406 136.351562 246.421875 136.449219 C 246.902344 136.542969 247.367188 136.683594 247.820312 136.871094 C 248.273438 137.058594 248.703125 137.289062 249.109375 137.5625 C 249.519531 137.832031 249.894531 138.140625 250.242188 138.488281 C 250.585938 138.835938 250.894531 139.210938 251.167969 139.617188 C 251.441406 140.023438 251.667969 140.453125 251.855469 140.90625 C 252.042969 141.359375 252.1875 141.824219 252.28125 142.304688 C 252.378906 142.785156 252.425781 143.269531 252.425781 143.761719 Z M 252.425781 143.761719 " fill-opacity="1" fill-rule="nonzero"/><path fill="#000000" d="M 244.96875 141.785156 C 244.675781 141.785156 244.308594 141.785156 244.015625 141.859375 L 238.828125 167.734375 L 236.046875 181.476562 C 238.535156 184.398438 241.605469 186.152344 244.96875 186.152344 C 248.332031 186.152344 251.402344 184.398438 253.886719 181.476562 L 251.109375 167.734375 L 245.917969 141.859375 C 245.625 141.859375 245.261719 141.785156 244.96875 141.785156 Z M 244.96875 141.785156 " fill-opacity="1" fill-rule="evenodd"/><g clip-path="url(#ca9bcb9a30)"><path fill="#000000" d="M 218.722656 75.929688 Z M 499.976562 74.542969 Z M 358.945312 123.734375 L 267.925781 92.816406 L 259.222656 89.816406 L 238.535156 82.800781 L 231.589844 80.460938 L 219.304688 76.296875 C 219.011719 76.222656 218.867188 76.078125 218.722656 75.929688 C 218.648438 75.785156 218.574219 75.566406 218.574219 75.273438 C 218.574219 74.980469 218.648438 74.761719 218.722656 74.613281 L 218.792969 74.542969 C 218.941406 74.394531 219.085938 74.320312 219.304688 74.25 L 359.019531 26.8125 C 359.164062 26.738281 359.3125 26.738281 359.382812 26.738281 C 359.457031 26.738281 359.605469 26.738281 359.75 26.8125 L 499.464844 74.25 C 499.757812 74.320312 499.902344 74.46875 500.046875 74.613281 C 500.121094 74.761719 500.195312 74.980469 500.195312 75.273438 C 500.195312 75.566406 500.121094 75.785156 500.046875 75.929688 L 499.976562 76.003906 C 499.828125 76.148438 499.683594 76.222656 499.464844 76.296875 L 459.546875 89.890625 L 450.84375 92.886719 L 359.824219 123.804688 C 359.675781 123.878906 359.53125 123.878906 359.457031 123.878906 C 359.382812 123.878906 359.238281 123.878906 359.09375 123.804688 Z M 358.945312 123.734375 " fill-opacity="1" fill-rule="evenodd"/></g><path fill="#000000" d="M 359.382812 132.578125 C 360.410156 132.578125 361.433594 132.359375 362.527344 131.992188 L 450.773438 102.023438 L 450.773438 184.253906 C 437.613281 188.710938 423.429688 192.222656 408.441406 194.632812 C 392.867188 197.117188 376.417969 198.507812 359.382812 198.507812 C 342.351562 198.507812 325.828125 197.191406 310.328125 194.632812 C 295.339844 192.222656 281.15625 188.710938 267.996094 184.253906 L 267.996094 102.023438 L 356.242188 131.992188 C 357.335938 132.359375 358.359375 132.578125 359.382812 132.578125 Z M 359.382812 132.578125 " fill-opacity="1" fill-rule="evenodd"/><path fill="#000000" d="M 132.230469 136.816406 L 226.761719 136.816406 L 226.761719 166.710938 L 132.230469 166.710938 C 127.40625 166.710938 123.019531 168.683594 119.804688 171.828125 C 116.585938 175.042969 114.613281 179.429688 114.613281 184.179688 L 114.613281 444.097656 C 114.613281 448.921875 116.585938 453.308594 119.804688 456.453125 C 123.019531 459.667969 127.40625 461.640625 132.160156 461.640625 L 586.390625 461.640625 C 591.214844 461.640625 595.601562 459.667969 598.746094 456.453125 C 601.964844 453.234375 603.9375 448.851562 603.9375 444.097656 L 603.9375 184.179688 C 603.9375 179.355469 601.964844 174.972656 598.746094 171.828125 C 595.53125 168.683594 591.144531 166.710938 586.316406 166.710938 L 465.320312 166.710938 L 465.320312 136.816406 L 586.316406 136.816406 C 599.332031 136.816406 611.175781 142.152344 619.800781 150.703125 L 619.875 150.703125 C 628.503906 159.328125 633.765625 171.171875 633.765625 184.179688 L 633.765625 444.097656 C 633.765625 457.183594 628.429688 469.023438 619.875 477.574219 C 611.25 486.199219 599.40625 491.464844 586.390625 491.464844 L 132.160156 491.464844 C 119.070312 491.464844 107.226562 486.128906 98.675781 477.574219 C 90.046875 468.949219 84.785156 457.109375 84.785156 444.097656 L 84.785156 184.179688 C 84.785156 171.097656 90.121094 159.257812 98.675781 150.703125 L 98.746094 150.703125 C 107.375 142.152344 119.21875 136.816406 132.230469 136.816406 Z M 132.230469 136.816406 " fill-opacity="1" fill-rule="nonzero"/><g clip-path="url(#ddef6af1a3)"><path fill="#000000" d="M 27.832031 515.292969 L 257.542969 515.292969 L 257.542969 518.726562 C 257.542969 524.941406 262.585938 529.984375 268.800781 529.984375 L 449.96875 529.984375 C 456.183594 529.984375 461.226562 524.941406 461.226562 518.726562 L 461.226562 515.292969 L 690.9375 515.292969 C 690.9375 535.683594 674.269531 552.347656 653.871094 552.347656 L 64.898438 552.347656 C 44.5 552.347656 27.832031 535.683594 27.832031 515.292969 Z M 27.832031 515.292969 " fill-opacity="1" fill-rule="evenodd"/></g><path fill="#000000" d="M 359.382812 237.320312 C 396.085938 237.320312 425.839844 267.066406 425.839844 303.761719 C 425.839844 340.453125 396.085938 370.203125 359.382812 370.203125 C 322.683594 370.203125 292.925781 340.453125 292.925781 303.761719 C 292.925781 267.066406 322.683594 237.320312 359.382812 237.320312 Z M 384.023438 311.214844 L 354.339844 328.394531 C 351.5625 330 348.417969 330 345.714844 328.394531 C 342.933594 326.785156 341.398438 324.082031 341.398438 320.9375 L 341.398438 286.65625 C 341.398438 283.515625 343.007812 280.734375 345.714844 279.203125 C 348.492188 277.59375 351.636719 277.59375 354.339844 279.203125 L 384.023438 296.378906 C 386.800781 297.984375 388.335938 300.691406 388.335938 303.832031 C 388.335938 306.976562 386.726562 309.753906 384.023438 311.289062 Z M 384.023438 311.214844 " fill-opacity="1" fill-rule="evenodd"/><path fill="#000000" d="M 211.921875 403.460938 L 506.847656 403.460938 C 509.332031 403.460938 511.378906 405.503906 511.378906 407.992188 C 511.378906 410.476562 509.332031 412.523438 506.847656 412.523438 L 211.921875 412.523438 C 209.4375 412.523438 207.390625 410.476562 207.390625 407.992188 C 207.390625 405.503906 209.4375 403.460938 211.921875 403.460938 Z M 211.921875 403.460938 " fill-opacity="1" fill-rule="evenodd"/><path fill="#000000" d="M 479.066406 407.992188 C 479.066406 408.941406 478.972656 409.882812 478.789062 410.8125 C 478.601562 411.746094 478.328125 412.652344 477.964844 413.527344 C 477.601562 414.40625 477.152344 415.242188 476.625 416.03125 C 476.097656 416.820312 475.496094 417.550781 474.824219 418.222656 C 474.152344 418.894531 473.421875 419.496094 472.632812 420.023438 C 471.84375 420.550781 471.007812 420.996094 470.128906 421.363281 C 469.25 421.726562 468.347656 422 467.414062 422.183594 C 466.480469 422.371094 465.539062 422.464844 464.589844 422.464844 C 463.640625 422.464844 462.699219 422.371094 461.765625 422.183594 C 460.832031 422 459.929688 421.726562 459.050781 421.363281 C 458.171875 420.996094 457.339844 420.550781 456.546875 420.023438 C 455.757812 419.496094 455.027344 418.894531 454.355469 418.222656 C 453.683594 417.550781 453.082031 416.820312 452.554688 416.03125 C 452.027344 415.242188 451.578125 414.40625 451.214844 413.527344 C 450.851562 412.652344 450.578125 411.746094 450.390625 410.8125 C 450.207031 409.882812 450.113281 408.941406 450.113281 407.992188 C 450.113281 407.039062 450.207031 406.097656 450.390625 405.167969 C 450.578125 404.234375 450.851562 403.332031 451.214844 402.453125 C 451.578125 401.574219 452.027344 400.742188 452.554688 399.949219 C 453.082031 399.160156 453.683594 398.429688 454.355469 397.757812 C 455.027344 397.085938 455.757812 396.484375 456.546875 395.957031 C 457.339844 395.429688 458.171875 394.984375 459.050781 394.621094 C 459.929688 394.257812 460.832031 393.980469 461.765625 393.796875 C 462.699219 393.609375 463.640625 393.519531 464.589844 393.519531 C 465.539062 393.519531 466.480469 393.609375 467.414062 393.796875 C 468.347656 393.980469 469.25 394.257812 470.128906 394.621094 C 471.007812 394.984375 471.84375 395.429688 472.632812 395.957031 C 473.421875 396.484375 474.152344 397.085938 474.824219 397.757812 C 475.496094 398.429688 476.097656 399.160156 476.625 399.949219 C 477.152344 400.742188 477.601562 401.574219 477.964844 402.453125 C 478.328125 403.332031 478.601562 404.234375 478.789062 405.167969 C 478.972656 406.097656 479.066406 407.039062 479.066406 407.992188 Z M 479.066406 407.992188 " fill-opacity="1" fill-rule="nonzero"/></svg>