<svg xmlns="http://www.w3.org/2000/svg" xmlns:xlink="http://www.w3.org/1999/xlink" width="940" zoomAndPan="magnify" viewBox="0 0 705 591.000005" height="788" preserveAspectRatio="xMidYMid meet" version="1.0"><defs><clipPath id="3955175689"><path d="M 385 143 L 700 143 L 700 551.613281 L 385 551.613281 Z M 385 143 " clip-rule="nonzero"/></clipPath><clipPath id="507580a08f"><path d="M 20 143 L 365 143 L 365 551.613281 L 20 551.613281 Z M 20 143 " clip-rule="nonzero"/></clipPath></defs><g clip-path="url(#3955175689)"><path fill="#000000" d="M 404.050781 275.109375 L 505.824219 275.109375 L 562.777344 304.359375 L 562.777344 533.878906 L 428.292969 533.878906 Z M 457.292969 193.453125 C 459.449219 192.882812 461.605469 194.390625 463.15625 195.773438 L 499.15625 228.324219 L 499.15625 252.613281 L 457.097656 215.949219 C 454.449219 213.472656 450.871094 212.082031 447.25 212.167969 C 447.25 212.167969 430.730469 212.253906 423.703125 212.253906 C 414.421875 212.253906 414.617188 204.640625 423.367188 202.359375 C 434.800781 199.390625 457.292969 193.453125 457.292969 193.453125 Z M 529.292969 161.625 L 599.5 161.625 C 610.441406 161.625 613.128906 163.585938 620.578125 171.1875 L 678.945312 230.839844 C 682.199219 234.128906 682.566406 238.972656 679.917969 242.839844 L 634.597656 308.960938 C 632.035156 312.703125 630.621094 313.148438 628.378906 313.398438 C 626.421875 313.640625 623.625 312.992188 621.421875 311.4375 C 619.140625 309.898438 617.640625 307.570312 617.148438 305.65625 C 616.617188 303.5 616.492188 301.960938 619.054688 298.257812 L 653.351562 248.253906 C 657.167969 242.636719 656.441406 234.941406 651.6875 230.136719 L 632.121094 210.160156 C 626.554688 204.515625 616.945312 208.496094 616.992188 216.433594 L 617.203125 269.648438 L 604.425781 288.25 C 599.585938 295.320312 598.328125 303.46875 599.90625 309.9375 C 601.585938 316.683594 605.847656 322.253906 611.378906 326.082031 C 613.089844 327.269531 615.160156 327.589844 617.195312 327.589844 L 617.195312 514.867188 C 617.195312 521.992188 614.917969 526.21875 611.613281 529.183594 C 608.324219 532.160156 603.644531 533.871094 598.890625 533.871094 C 594.085938 533.871094 589.371094 532.160156 586.074219 529.183594 C 582.785156 526.21875 580.503906 521.992188 580.503906 514.867188 L 580.503906 298.945312 C 580.464844 295.609375 578.628906 292.601562 575.703125 291.09375 L 516.84375 260.871094 L 516.84375 174.085938 C 516.851562 167.859375 520.546875 161.625 529.292969 161.625 Z M 529.292969 143.933594 C 512.621094 143.933594 499.15625 155.5625 499.15625 170.09375 L 499.15625 204.4375 L 475.277344 182.789062 C 469.21875 177.289062 461.449219 174.125 454.691406 175.875 L 424.832031 183.648438 C 408.363281 187.304688 398.878906 198.085938 398.996094 209.308594 C 398.996094 214.558594 401.808594 220.378906 406.332031 223.964844 C 411.050781 227.746094 417.757812 229.863281 426.222656 229.863281 L 446.15625 229.863281 L 477.714844 257.417969 L 394.328125 257.417969 C 389.117188 257.417969 385.019531 261.882812 385.511719 267.09375 L 411.375 543.558594 C 411.820312 548.121094 415.648438 551.582031 420.210938 551.582031 L 571.671875 551.582031 C 575.132812 551.542969 578.222656 549.550781 579.691406 546.417969 C 585.542969 549.917969 592.21875 551.582031 598.851562 551.582031 C 607.683594 551.582031 616.585938 548.613281 623.5 542.339844 C 630.410156 536.082031 634.894531 526.3125 634.894531 514.875 L 634.894531 328.238281 C 640.105469 326.457031 645.460938 324.457031 649.210938 319.011719 L 694.515625 252.855469 C 701.835938 242.199219 700.664062 227.707031 691.589844 218.425781 L 633.175781 158.828125 C 624.34375 149.800781 614.019531 143.933594 599.492188 143.933594 Z M 529.292969 143.933594 " fill-opacity="1" fill-rule="nonzero"/></g><path fill="#000000" d="M 552.316406 33.308594 C 562.535156 29.238281 574.25 29.121094 585.183594 33.839844 C 607.199219 43.363281 617.164062 68.5 607.714844 90.429688 C 598.242188 112.402344 573.015625 122.371094 551.054688 112.894531 C 529.160156 103.488281 519.195312 78.1875 528.644531 56.335938 C 533.410156 45.347656 542.070312 37.378906 552.316406 33.308594 Z M 545.8125 16.910156 C 531.371094 22.652344 519.007812 33.917969 512.378906 49.289062 C 499.125 79.96875 513.398438 115.941406 544.0625 129.199219 C 574.8125 142.425781 610.730469 128.144531 624 97.421875 C 637.253906 66.703125 623.023438 30.824219 592.226562 17.550781 C 576.882812 10.972656 560.292969 11.167969 545.8125 16.910156 Z M 545.8125 16.910156 " fill-opacity="1" fill-rule="evenodd"/><g clip-path="url(#507580a08f)"><path fill="#000000" d="M 213.882812 275.195312 L 315.625 275.195312 L 291.414062 533.878906 L 156.882812 533.878906 L 156.882812 304.359375 Z M 120.246094 161.671875 L 186.828125 161.671875 C 197.488281 161.671875 199.886719 164.117188 208.351562 171.601562 L 249.238281 207.945312 C 252.613281 210.949219 257.699219 210.910156 261.023438 207.90625 L 299.753906 172.789062 C 299.792969 172.75 299.878906 172.75 299.878906 172.703125 C 301.417969 171.273438 303.503906 170.546875 305.777344 170.421875 L 338.320312 178.601562 C 349.753906 181.5 349.222656 189.101562 336.859375 189.101562 L 315.78125 189.101562 C 312.164062 189.015625 308.667969 190.445312 305.980469 192.882812 L 262.617188 230.683594 C 258.710938 234.097656 254.035156 234.222656 249.714844 231.089844 L 216.976562 207.09375 C 211.109375 202.742188 202.824219 206.929688 202.855469 214.246094 L 202.855469 260.878906 L 144.035156 291.101562 C 141.070312 292.609375 139.195312 295.664062 139.195312 299 L 139.195312 514.960938 C 139.195312 522.046875 136.914062 526.234375 133.625 529.199219 C 130.339844 532.207031 125.652344 533.886719 120.855469 533.886719 C 116.054688 533.886719 111.414062 532.207031 108.117188 529.199219 C 104.816406 526.234375 102.550781 522.046875 102.550781 514.960938 L 102.550781 329.542969 C 104.417969 328.769531 106.609375 327.230469 108.273438 326.082031 C 113.859375 322.261719 118.121094 316.683594 119.792969 309.9375 C 121.378906 303.429688 120.160156 295.367188 115.273438 288.28125 L 102.550781 269.6875 L 102.792969 216.433594 C 102.832031 208.425781 93.105469 204.4375 87.539062 210.160156 L 68.011719 230.136719 C 63.257812 234.941406 62.523438 242.636719 66.351562 248.253906 L 100.722656 298.289062 C 103.246094 302.039062 103.121094 303.5 102.597656 305.65625 C 102.105469 307.570312 100.511719 309.976562 98.285156 311.523438 C 96.042969 313.03125 93.277344 313.679688 91.328125 313.4375 C 89.085938 313.148438 87.617188 312.695312 85.054688 308.960938 L 39.734375 242.839844 C 37.101562 238.972656 37.546875 234.128906 40.796875 230.839844 L 99.128906 171.1875 C 106.5625 163.585938 109.289062 161.710938 120.238281 161.710938 L 120.238281 161.671875 Z M 120.246094 143.933594 C 105.71875 143.933594 95.347656 149.800781 86.53125 158.828125 L 28.113281 218.425781 C 18.996094 227.707031 17.863281 242.199219 25.183594 252.855469 L 70.503906 319.011719 C 74.199219 324.417969 79.621094 328.410156 84.78125 330.199219 L 84.78125 514.960938 C 84.78125 526.398438 89.289062 536.082031 96.207031 542.339844 C 103.121094 548.613281 112.078125 551.582031 120.863281 551.582031 C 127.488281 551.582031 134.164062 549.917969 140.015625 546.417969 C 141.445312 549.550781 144.613281 551.582031 148.074219 551.582031 L 299.472656 551.582031 C 304.066406 551.582031 307.886719 548.121094 308.308594 543.558594 L 334.214844 267.09375 C 334.707031 261.882812 330.589844 257.417969 325.378906 257.417969 L 220.550781 257.417969 L 220.550781 231.699219 L 239.226562 245.363281 C 249.714844 253.019531 264.40625 252.613281 274.285156 243.988281 L 316.875 206.796875 L 336.84375 206.796875 C 345.304688 206.796875 351.972656 204.679688 356.738281 200.898438 C 361.210938 197.3125 364.015625 191.5 364.054688 186.25 C 364.140625 175.023438 354.660156 164.226562 338.21875 160.570312 L 308.410156 152.800781 C 307.636719 152.589844 306.824219 152.511719 306.058594 152.511719 C 299.378906 152.550781 292.789062 155.039062 287.789062 159.71875 L 254.996094 189.414062 L 220.136719 158.375 C 211.226562 150.441406 201.621094 143.933594 186.8125 143.933594 Z M 120.246094 143.933594 " fill-opacity="1" fill-rule="nonzero"/></g><path fill="#000000" d="M 135.617188 33.308594 C 145.871094 29.238281 157.585938 29.121094 168.539062 33.839844 C 190.539062 43.363281 200.503906 68.5 191.070312 90.429688 C 181.597656 112.402344 156.367188 122.371094 134.359375 112.894531 C 112.523438 103.488281 102.558594 78.1875 111.992188 56.335938 C 116.75 45.347656 125.410156 37.378906 135.617188 33.308594 Z M 129.152344 16.910156 C 114.71875 22.652344 102.347656 33.917969 95.714844 49.289062 C 82.460938 79.96875 96.691406 115.941406 127.402344 129.199219 C 158.164062 142.425781 194.078125 128.144531 207.335938 97.421875 C 220.558594 66.703125 206.332031 30.824219 175.566406 17.550781 C 160.226562 10.972656 143.628906 11.167969 129.152344 16.910156 Z M 129.152344 16.910156 " fill-opacity="1" fill-rule="evenodd"/></svg>