<svg xmlns="http://www.w3.org/2000/svg" xmlns:xlink="http://www.w3.org/1999/xlink" width="940" zoomAndPan="magnify" viewBox="0 0 705 591.000005" height="788" preserveAspectRatio="xMidYMid meet" version="1.0"><defs><clipPath id="62c259ad65"><path d="M 90.121094 17 L 633.703125 17 L 633.703125 572.460938 L 90.121094 572.460938 Z M 90.121094 17 " clip-rule="nonzero"/></clipPath></defs><path fill="#100f0d" d="M 188.378906 381.535156 C 192.949219 381.828125 197.546875 382.523438 202.070312 383.582031 C 207.226562 384.804688 211.878906 386.738281 215.898438 389.3125 C 219.828125 391.839844 223.058594 395.238281 225.507812 399.40625 C 227.921875 403.539062 229.152344 408.730469 229.152344 414.847656 C 229.152344 419.242188 228.113281 423.402344 226.070312 427.207031 C 223.992188 431.089844 221.128906 434.523438 217.574219 437.421875 C 213.96875 440.355469 209.730469 442.695312 204.976562 444.390625 C 200.328125 446.050781 195.371094 446.910156 190.367188 446.945312 Z M 177.410156 381.554688 L 179.492188 446.621094 L 176.855469 446.257812 C 176.679688 446.234375 176.503906 446.234375 176.328125 446.253906 C 173.425781 446.574219 171.699219 448.507812 171.699219 451.414062 C 171.699219 452.953125 172.121094 454.238281 172.953125 455.222656 C 173.707031 456.117188 174.671875 456.789062 175.804688 457.210938 C 176.8125 457.59375 177.933594 457.820312 179.253906 457.90625 C 180.382812 457.972656 181.539062 458.011719 182.722656 458.011719 C 190.972656 458.011719 198.671875 457.085938 205.589844 455.257812 C 212.605469 453.414062 218.789062 450.609375 223.960938 446.90625 C 229.207031 443.140625 233.367188 438.382812 236.332031 432.769531 C 239.292969 427.148438 240.871094 420.484375 241.019531 412.785156 C 240.585938 405.457031 238.789062 399.066406 235.675781 393.789062 C 232.5625 388.523438 228.4375 384.109375 223.414062 380.671875 C 218.441406 377.289062 212.644531 374.726562 206.183594 373.046875 C 200.1875 371.503906 193.796875 370.582031 187.175781 370.308594 C 185.917969 368.011719 184.164062 367.628906 183.125 367.628906 C 182.941406 367.628906 182.695312 367.628906 182.421875 367.664062 C 182.152344 367.628906 181.90625 367.628906 181.722656 367.628906 C 180.835938 367.628906 178.933594 367.925781 177.890625 370.324219 C 176.113281 370.484375 174.734375 370.929688 173.710938 371.660156 C 171.789062 373.019531 171.390625 374.683594 171.390625 375.839844 C 171.390625 376.816406 171.707031 378.28125 173.207031 379.710938 C 174.230469 380.691406 175.59375 381.3125 177.410156 381.554688 " fill-opacity="1" fill-rule="nonzero"/><path fill="#100f0d" d="M 256.972656 427.671875 C 256.972656 419.183594 258.800781 412.933594 262.402344 409.085938 C 266.011719 405.226562 271.164062 403.351562 278.148438 403.351562 C 280.792969 403.351562 283.402344 403.8125 285.902344 404.738281 C 288.335938 405.625 290.53125 407.0625 292.410156 409 C 294.3125 410.976562 295.894531 413.558594 297.105469 416.667969 C 298.3125 419.808594 298.925781 423.675781 298.925781 428.175781 C 298.925781 431.679688 298.363281 434.632812 297.261719 436.957031 C 296.160156 439.285156 294.703125 441.109375 292.824219 442.523438 C 290.894531 443.960938 288.613281 445.03125 286.054688 445.699219 C 281.359375 446.910156 275.761719 447.238281 270.035156 445.796875 C 267.679688 445.195312 265.503906 444.167969 263.589844 442.730469 C 261.710938 441.316406 260.113281 439.367188 258.847656 436.9375 C 257.601562 434.542969 256.972656 431.421875 256.972656 427.671875 Z M 256.203125 452.015625 C 259.347656 454.398438 262.855469 456.125 266.636719 457.128906 C 270.332031 458.113281 273.929688 458.617188 277.339844 458.617188 C 281.832031 458.617188 286.117188 458.066406 290.078125 456.980469 C 294.164062 455.855469 297.777344 453.972656 300.800781 451.378906 C 303.832031 448.796875 306.253906 445.402344 308.003906 441.289062 C 309.714844 437.25 310.585938 432.296875 310.585938 426.558594 C 310.585938 420.890625 309.683594 415.851562 307.898438 411.59375 C 306.113281 407.292969 303.6875 403.652344 300.695312 400.765625 C 297.691406 397.871094 294.175781 395.671875 290.246094 394.230469 C 286.347656 392.800781 282.273438 392.074219 278.148438 392.074219 C 272.851562 392.074219 268.101562 392.890625 264.027344 394.496094 C 259.886719 396.144531 256.375 398.558594 253.582031 401.683594 C 250.800781 404.785156 248.679688 408.582031 247.269531 412.972656 C 245.902344 417.257812 245.207031 422.203125 245.207031 427.671875 C 245.207031 433.519531 246.253906 438.496094 248.324219 442.460938 C 250.375 446.390625 253.023438 449.605469 256.203125 452.015625 " fill-opacity="1" fill-rule="nonzero"/><path fill="#100f0d" d="M 318.421875 403.738281 C 318.855469 404.449219 319.261719 405.09375 319.640625 405.640625 C 319.925781 406.058594 320.136719 406.378906 320.25 406.589844 L 320.457031 407.257812 C 320.472656 407.398438 320.5 407.535156 320.535156 407.664062 L 321.746094 452.53125 C 321.746094 454.28125 322.371094 455.773438 323.5625 456.847656 C 324.679688 457.875 326.089844 458.414062 327.628906 458.414062 C 329.050781 458.414062 330.363281 457.957031 331.53125 457.050781 C 332.785156 456.066406 333.503906 454.648438 333.605469 452.921875 C 333.675781 451.289062 333.734375 448.886719 333.761719 445.730469 C 333.796875 442.628906 333.910156 439.203125 334.113281 435.460938 C 334.3125 431.761719 334.695312 427.917969 335.25 424.039062 C 335.808594 420.195312 336.648438 416.691406 337.730469 413.636719 C 338.773438 410.671875 340.128906 408.222656 341.765625 406.355469 C 343.171875 404.738281 344.921875 403.953125 347.117188 403.953125 C 349.90625 403.953125 352.039062 404.429688 353.449219 405.359375 C 354.898438 406.324219 355.945312 407.574219 356.664062 409.191406 C 357.4375 410.945312 357.941406 413.054688 358.164062 415.4375 C 358.386719 418.027344 358.5625 420.746094 358.707031 423.609375 L 358.90625 452.929688 C 358.90625 455.878906 360.773438 457.707031 363.773438 457.707031 C 366.804688 457.707031 369.019531 456.328125 370.011719 453.832031 C 370.113281 453.578125 370.167969 453.308594 370.167969 453.035156 L 370.167969 423.730469 C 370.167969 418.582031 369.761719 414.046875 368.960938 410.246094 C 368.125 406.34375 366.78125 403.085938 364.960938 400.554688 C 363.085938 397.941406 360.632812 395.988281 357.683594 394.765625 C 354.828125 393.585938 351.402344 392.988281 347.519531 392.988281 C 345.460938 392.988281 343.480469 393.148438 341.648438 393.476562 C 339.710938 393.8125 337.875 394.453125 336.191406 395.378906 C 334.484375 396.308594 332.929688 397.59375 331.585938 399.214844 C 331.210938 399.660156 330.855469 400.144531 330.503906 400.660156 C 330.132812 399.824219 329.726562 399.019531 329.285156 398.261719 C 328.554688 396.992188 327.675781 395.925781 326.671875 395.097656 C 324.191406 393.046875 320.691406 393.140625 318.398438 395.128906 C 317.15625 396.203125 316.496094 397.605469 316.496094 399.179688 C 316.496094 399.972656 316.746094 400.8125 317.449219 402.066406 C 317.75 402.59375 318.066406 403.144531 318.421875 403.738281 " fill-opacity="1" fill-rule="nonzero"/><path fill="#100f0d" d="M 391.777344 426.359375 C 391.777344 425.511719 391.933594 423.886719 392.679688 420.964844 C 393.25 418.667969 394.257812 416.320312 395.667969 413.96875 C 397.023438 411.707031 398.878906 409.707031 401.191406 408.042969 C 403.398438 406.449219 406.125 405.667969 409.519531 405.667969 C 411.015625 405.667969 412.566406 405.964844 414.121094 406.539062 C 415.710938 407.140625 417.203125 408.011719 418.554688 409.113281 C 419.949219 410.273438 421.164062 411.632812 422.179688 413.152344 C 423.128906 414.578125 423.828125 416.453125 424.242188 418.722656 L 424.640625 426.460938 C 424.640625 430.636719 424.546875 433.613281 424.355469 435.285156 C 424.167969 436.804688 423.890625 438.3125 423.496094 439.882812 C 423.46875 440 423.449219 440.105469 423.441406 440.21875 C 422.558594 442.683594 420.929688 444.503906 418.480469 445.769531 C 415.640625 447.238281 412.480469 447.953125 408.8125 447.953125 C 405.28125 447.953125 402.40625 447.265625 400.273438 445.914062 C 398.054688 444.503906 396.363281 442.804688 395.109375 440.710938 C 393.824219 438.585938 392.949219 436.230469 392.507812 433.703125 C 392.027344 431.066406 391.777344 428.597656 391.777344 426.359375 Z M 385.324219 447.445312 C 387.4375 450.875 390.421875 453.75 394.1875 455.996094 C 398.007812 458.265625 403.03125 459.421875 409.121094 459.421875 C 413.1875 459.421875 416.96875 458.882812 420.355469 457.8125 C 422.855469 457.035156 425.089844 455.871094 427.039062 454.339844 C 427.703125 455.382812 428.546875 456.21875 429.554688 456.832031 C 431.183594 457.828125 433.105469 458.460938 435.285156 458.714844 C 437.558594 458.964844 439.429688 458.714844 440.875 457.984375 C 440.902344 457.96875 440.933594 457.957031 440.960938 457.9375 L 441.671875 457.535156 C 441.851562 457.4375 442.007812 457.316406 442.148438 457.175781 C 442.5625 456.753906 442.941406 456.320312 443.277344 455.851562 C 443.742188 455.207031 444.027344 454.578125 444.148438 453.9375 C 444.175781 453.804688 444.183594 453.667969 444.183594 453.535156 C 444.183594 450.488281 442.609375 448.332031 439.738281 447.445312 C 439.535156 447.382812 439.320312 447.351562 439.109375 447.351562 C 437.96875 447.351562 437.476562 447.101562 437.316406 446.996094 C 436.964844 446.765625 436.746094 446.503906 436.597656 446.148438 C 436.410156 445.691406 436.3125 445.121094 436.3125 444.449219 L 436.3125 440.203125 C 436.3125 437.378906 436.320312 434.457031 436.359375 431.429688 C 436.382812 428.414062 436.441406 425.625 436.511719 423.050781 C 436.578125 418.742188 436.78125 414.4375 437.113281 410.222656 C 437.242188 408.117188 437.40625 406.316406 437.601562 404.808594 C 437.789062 403.410156 438.019531 402.308594 438.304688 401.515625 C 438.386719 401.285156 438.429688 401.039062 438.429688 400.789062 C 438.429688 399.691406 437.996094 398.113281 435.949219 396.847656 C 433.367188 395.25 430.21875 395.265625 428.019531 396.574219 C 426.867188 397.253906 426.066406 398.363281 425.585938 400.117188 C 423.71875 398.570312 421.800781 397.402344 419.855469 396.628906 C 416.816406 395.417969 413.273438 394.804688 409.324219 394.804688 C 405.589844 394.804688 402.207031 395.359375 399.277344 396.460938 C 396.382812 397.535156 393.816406 399.007812 391.640625 400.808594 C 389.476562 402.609375 387.640625 404.683594 386.199219 406.96875 C 384.796875 409.179688 383.621094 411.460938 382.722656 413.757812 C 381.835938 416.042969 381.191406 418.28125 380.804688 420.402344 C 380.410156 422.535156 380.210938 424.46875 380.210938 426.152344 C 380.210938 429.308594 380.546875 432.792969 381.207031 436.523438 C 381.875 440.398438 383.257812 444.066406 385.324219 447.445312 " fill-opacity="1" fill-rule="nonzero"/><path fill="#100f0d" d="M 447.738281 409.152344 C 448.65625 409.589844 449.699219 409.941406 450.851562 410.21875 L 453.804688 410.890625 C 453.90625 410.925781 454.007812 410.964844 454.109375 410.980469 C 454.742188 411.121094 455.382812 411.25 456.046875 411.359375 C 456.046875 411.363281 456.058594 411.363281 456.0625 411.363281 C 455.976562 413.214844 455.902344 414.9375 455.855469 416.542969 C 455.785156 418.679688 455.75 420.878906 455.75 423.128906 C 455.75 428.351562 456.03125 433.066406 456.582031 437.148438 C 457.140625 441.378906 458.097656 445 459.429688 447.921875 C 460.855469 451.023438 462.816406 453.398438 465.25 454.976562 C 467.367188 456.367188 469.949219 457.070312 472.886719 457.070312 C 473.433594 457.070312 473.996094 457.042969 474.570312 456.996094 C 479.167969 456.761719 482.613281 455.253906 484.8125 452.511719 C 486.898438 449.921875 488.265625 446.230469 489 441.222656 C 489.027344 441.023438 489.027344 440.824219 489.003906 440.621094 C 488.742188 438.664062 487.996094 437.058594 486.773438 435.839844 C 484.394531 433.492188 481.179688 433.296875 478.867188 435.226562 C 477.8125 436.128906 477.171875 437.449219 476.984375 439.0625 C 476.6875 440.976562 476.199219 442.609375 475.527344 443.917969 C 475.0625 444.828125 474.519531 445.023438 473.855469 445.023438 C 472.8125 445.023438 470.050781 445.023438 469.117188 438.617188 C 468.785156 435.957031 468.539062 432.5625 468.375 428.539062 C 468.210938 424.597656 468.128906 419.855469 468.128906 414.03125 L 468.128906 412.519531 C 469.375 412.574219 471.203125 412.542969 472.796875 412.488281 C 474.050781 412.457031 475.246094 412.328125 476.363281 412.097656 C 477.5625 411.847656 478.621094 411.449219 479.503906 410.894531 C 480.644531 410.167969 481.375 409.082031 481.621094 407.757812 C 481.644531 407.628906 481.65625 407.496094 481.65625 407.367188 C 481.65625 406.730469 481.570312 406.070312 481.390625 405.316406 C 481.09375 404.144531 480.230469 403.1875 478.835938 402.480469 C 477.804688 401.941406 476.347656 401.5 474.246094 401.101562 C 472.75 400.824219 470.824219 400.65625 468.402344 400.597656 L 468.417969 400.320312 C 468.753906 395.074219 469.039062 390.761719 469.285156 387.351562 C 469.511719 383.972656 469.730469 381.253906 469.929688 379.179688 C 469.9375 379.113281 469.980469 378.75 469.980469 378.679688 C 470.019531 378.375 470.039062 378.089844 470.019531 378.089844 C 470.019531 378.089844 470.019531 378.09375 470.019531 378.105469 L 470.375 375.839844 C 470.46875 375.207031 470.578125 374.527344 470.75 373.582031 C 470.902344 371.601562 470.472656 370.039062 469.460938 368.945312 C 468.496094 367.90625 466.261719 366.71875 461.796875 368.132812 C 461.550781 368.210938 461.324219 368.328125 461.125 368.484375 C 459.671875 369.617188 458.824219 371.636719 458.445312 374.820312 C 458.132812 377.375 457.878906 380.507812 457.679688 384.398438 C 457.53125 386.957031 457.371094 389.695312 457.167969 392.621094 C 457.023438 394.734375 456.84375 396.902344 456.625 399.109375 C 456.355469 399.050781 456.074219 398.996094 455.785156 398.9375 C 452.851562 398.367188 449.898438 398.367188 447.582031 399.386719 C 445.984375 400.097656 444.917969 401.433594 444.464844 403.375 C 444.25 404.722656 444.484375 405.972656 445.128906 406.941406 C 445.699219 407.847656 446.574219 408.589844 447.738281 409.152344 " fill-opacity="1" fill-rule="nonzero"/><path fill="#100f0d" d="M 503.109375 417.59375 C 503.582031 416.371094 504.144531 415.203125 504.78125 414.101562 C 505.867188 412.230469 507.195312 410.523438 508.71875 409.050781 C 512.519531 405.753906 516.867188 404.15625 522.007812 404.15625 C 525.765625 404.15625 528.882812 404.777344 531.285156 405.996094 C 533.734375 407.230469 535.703125 408.703125 537.144531 410.378906 C 538.566406 412.039062 539.585938 413.753906 540.171875 415.480469 C 540.382812 416.101562 540.558594 416.679688 540.699219 417.21875 C 537.925781 417.101562 533.621094 417.117188 528.40625 417.195312 C 525.617188 417.21875 522.777344 417.242188 519.855469 417.242188 L 508.644531 417.441406 C 506.5625 417.480469 504.71875 417.53125 503.109375 417.59375 Z M 497.621094 448.175781 C 500.34375 451.300781 503.792969 453.847656 507.882812 455.742188 C 511.980469 457.652344 516.871094 458.617188 522.417969 458.617188 C 525.15625 458.617188 527.90625 458.253906 530.59375 457.535156 C 533.292969 456.808594 535.859375 455.769531 538.207031 454.449219 C 540.589844 453.113281 542.773438 451.511719 544.691406 449.691406 C 546.519531 447.972656 548.058594 446.003906 549.277344 443.835938 C 549.355469 443.753906 549.414062 443.667969 549.472656 443.574219 C 550.613281 441.785156 550.972656 440.042969 550.550781 438.398438 C 550.144531 436.855469 549.335938 435.648438 548.144531 434.808594 C 546.976562 433.988281 545.703125 433.613281 544.214844 433.660156 C 542.574219 433.710938 541.183594 434.445312 539.988281 436.089844 C 538.226562 439.566406 535.738281 442.140625 532.472656 443.925781 C 530.667969 444.804688 528.882812 445.507812 527.15625 446.023438 C 525.550781 446.492188 523.960938 446.734375 522.417969 446.734375 C 518.652344 446.734375 515.414062 446.207031 512.804688 445.167969 C 510.226562 444.152344 508.117188 442.757812 506.527344 441.019531 C 504.933594 439.28125 503.765625 437.246094 503.058594 434.957031 C 502.503906 433.191406 502.160156 431.339844 502.019531 429.4375 C 505.085938 429.191406 508.125 429.011719 511.085938 428.90625 L 522.78125 428.503906 C 531.273438 428.300781 538.453125 428.195312 544.515625 428.1875 C 548.398438 428.613281 550.226562 426.554688 550.9375 425.304688 C 551.945312 423.546875 552.4375 421.046875 552.4375 417.671875 C 552.4375 414.804688 551.703125 411.820312 550.25 408.800781 C 548.816406 405.824219 546.761719 403.105469 544.164062 400.734375 C 541.566406 398.347656 538.386719 396.355469 534.703125 394.820312 C 530.984375 393.261719 526.78125 392.480469 522.21875 392.480469 C 517.082031 392.480469 512.4375 393.453125 508.417969 395.371094 C 504.425781 397.277344 501.003906 399.808594 498.242188 402.894531 C 495.484375 405.992188 493.355469 409.558594 491.914062 413.5 C 490.496094 417.425781 489.78125 421.488281 489.78125 425.554688 C 489.78125 429.609375 490.402344 433.632812 491.640625 437.515625 C 492.902344 441.496094 494.917969 445.078125 497.621094 448.175781 " fill-opacity="1" fill-rule="nonzero"/><g clip-path="url(#62c259ad65)"><path fill="#100f0d" d="M 610.609375 549.039062 L 113.21875 549.039062 L 113.21875 320.035156 L 610.609375 320.035156 Z M 238.449219 240.460938 L 306.695312 240.460938 C 324.980469 252.988281 341.140625 261.800781 349.816406 266.25 L 238.449219 266.25 C 231.332031 266.25 225.5625 260.476562 225.5625 253.355469 C 225.5625 246.234375 231.332031 240.460938 238.449219 240.460938 Z M 247.84375 79.972656 C 256.976562 60.398438 273.808594 46.675781 291.789062 44.160156 C 296.347656 43.515625 300.664062 43.230469 304.738281 43.230469 C 335.246094 43.230469 352.082031 59.144531 352.808594 59.847656 C 357.652344 64.683594 366.214844 64.6875 371.035156 59.847656 C 371.253906 59.640625 392.792969 38.601562 432.050781 44.136719 C 450.027344 46.652344 466.863281 60.382812 475.996094 79.972656 C 486.839844 103.230469 484.621094 130.085938 469.90625 153.644531 C 468.765625 155.46875 467.5625 157.265625 466.335938 159.050781 C 466.164062 159.296875 465.988281 159.539062 465.816406 159.78125 C 435.527344 203.136719 379.519531 234.34375 361.894531 243.441406 C 344.972656 234.726562 292.703125 205.675781 261.695312 164.894531 C 260.417969 163.210938 259.179688 161.511719 257.972656 159.785156 C 257.8125 159.550781 257.644531 159.320312 257.480469 159.082031 C 256.246094 157.300781 255.046875 155.5 253.90625 153.675781 C 239.199219 130.117188 236.988281 103.25 247.84375 79.972656 Z M 498.261719 253.355469 C 498.261719 260.476562 492.492188 266.25 485.375 266.25 L 373.980469 266.25 C 382.65625 261.800781 398.8125 252.988281 417.09375 240.460938 L 485.375 240.460938 C 492.492188 240.460938 498.261719 246.234375 498.261719 253.355469 Z M 633.6875 302.742188 C 633.683594 301.753906 633.570312 300.769531 633.394531 299.789062 C 633.347656 299.546875 633.304688 299.304688 633.253906 299.066406 C 633.039062 298.113281 632.761719 297.175781 632.382812 296.261719 C 632.316406 296.113281 632.238281 295.972656 632.167969 295.820312 C 631.945312 295.316406 631.722656 294.820312 631.453125 294.332031 L 562.714844 173.574219 C 559.660156 168.210938 553.957031 164.894531 547.78125 164.894531 L 493.179688 164.894531 C 511.273438 134.363281 513.585938 99.59375 499.355469 69.066406 C 486.574219 41.652344 462.160156 22.3125 435.632812 18.59375 C 399.800781 13.554688 374.523438 25.882812 361.925781 34.394531 C 349.324219 25.882812 324.070312 13.574219 288.207031 18.617188 C 261.6875 22.328125 237.273438 41.660156 224.488281 69.066406 C 210.25 99.59375 212.539062 134.359375 230.617188 164.894531 L 176.039062 164.894531 C 169.867188 164.894531 164.164062 168.210938 161.109375 173.574219 L 92.371094 294.332031 C 92.097656 294.820312 91.882812 295.316406 91.65625 295.820312 C 91.585938 295.972656 91.503906 296.113281 91.441406 296.261719 C 91.0625 297.175781 90.785156 298.113281 90.570312 299.066406 C 90.515625 299.304688 90.476562 299.546875 90.429688 299.789062 C 90.253906 300.769531 90.140625 301.753906 90.136719 302.742188 C 90.136719 302.78125 90.121094 302.8125 90.121094 302.84375 L 90.121094 302.914062 C 90.121094 302.921875 90.121094 302.925781 90.121094 302.929688 L 90.121094 554.949219 C 90.121094 564.449219 97.816406 572.140625 107.304688 572.140625 L 616.519531 572.140625 C 626.007812 572.140625 633.695312 564.449219 633.695312 554.949219 L 633.695312 302.929688 C 633.695312 302.925781 633.695312 302.921875 633.695312 302.914062 L 633.695312 302.84375 C 633.695312 302.8125 633.6875 302.78125 633.6875 302.742188 " fill-opacity="1" fill-rule="nonzero"/></g></svg>