<svg xmlns="http://www.w3.org/2000/svg" xmlns:xlink="http://www.w3.org/1999/xlink" width="940" zoomAndPan="magnify" viewBox="0 0 705 591.000005" height="788" preserveAspectRatio="xMidYMid meet" version="1.0"><defs><clipPath id="0c7e01a380"><path d="M 22.789062 45 L 682.421875 45 L 682.421875 518.808594 L 22.789062 518.808594 Z M 22.789062 45 " clip-rule="nonzero"/></clipPath></defs><g clip-path="url(#0c7e01a380)"><path fill="#000000" d="M 671.96875 80.484375 C 634.425781 76.371094 597.914062 69.167969 564.484375 59.90625 C 434.375 23.894531 372.664062 64.023438 352.09375 83.058594 C 331.519531 63.507812 269.808594 23.894531 139.699219 59.90625 C 106.269531 69.167969 69.757812 76.371094 32.214844 80.484375 C 27.074219 81 22.960938 85.628906 22.960938 90.773438 L 22.960938 493.597656 C 22.960938 496.683594 23.988281 499.257812 26.558594 501.316406 C 28.617188 503.371094 31.703125 504.402344 34.789062 503.886719 C 73.359375 499.257812 110.898438 492.570312 145.355469 482.792969 C 252.324219 452.957031 307.351562 486.910156 331.007812 510.0625 C 337.179688 515.71875 344.890625 518.808594 352.605469 518.808594 C 360.320312 518.808594 368.035156 515.71875 374.207031 510.0625 C 397.347656 486.910156 452.375 452.957031 559.859375 482.792969 C 594.3125 492.570312 631.855469 499.257812 670.425781 503.886719 C 673.511719 504.402344 676.082031 503.371094 678.652344 501.316406 C 680.710938 499.257812 682.253906 496.683594 682.253906 493.597656 L 682.253906 90.773438 C 681.226562 85.628906 677.109375 81.515625 671.96875 80.484375 Z M 43.53125 141.707031 C 79.015625 137.074219 112.957031 130.386719 144.839844 121.640625 C 280.609375 84.085938 332.035156 140.164062 341.808594 152.511719 L 341.808594 443.179688 C 314.035156 420.542969 252.839844 390.191406 139.699219 421.574219 C 109.355469 429.804688 76.957031 436.492188 43.53125 440.609375 Z M 660.65625 481.765625 C 627.226562 477.648438 594.828125 470.960938 564.484375 462.730469 C 447.230469 430.320312 385.519531 468.902344 359.292969 495.140625 C 355.179688 499.257812 349.007812 499.257812 344.890625 495.140625 C 325.351562 476.105469 287.292969 450.382812 223.011719 450.382812 C 198.839844 450.382812 171.582031 453.984375 139.699219 462.730469 C 109.355469 470.960938 77.472656 477.648438 43.53125 481.765625 L 43.53125 461.1875 C 79.015625 456.558594 112.957031 449.867188 144.839844 441.125 C 293.464844 399.964844 341.292969 470.960938 343.347656 474.046875 C 345.40625 477.136719 348.492188 478.679688 352.09375 478.679688 C 355.691406 478.679688 358.777344 477.136719 360.835938 474.046875 C 362.890625 470.960938 410.71875 399.964844 559.34375 441.125 C 591.226562 449.867188 625.167969 456.558594 660.65625 461.1875 Z M 660.65625 440.609375 C 627.226562 436.492188 594.828125 429.804688 564.484375 421.574219 C 451.347656 390.191406 390.148438 420.03125 362.378906 443.179688 L 362.378906 152.511719 C 371.632812 140.164062 423.574219 84.085938 559.34375 121.640625 C 591.226562 130.386719 625.167969 137.074219 660.65625 141.707031 Z M 660.65625 121.128906 C 627.226562 117.011719 594.828125 110.324219 564.484375 102.09375 C 434.375 66.082031 373.175781 110.839844 352.09375 132.960938 C 331.007812 110.839844 269.808594 66.082031 139.699219 102.09375 C 109.355469 110.324219 77.472656 117.011719 43.53125 121.128906 L 43.53125 100.035156 C 79.015625 95.40625 112.957031 88.714844 144.839844 79.96875 C 293.464844 38.8125 342.835938 103.636719 343.347656 104.152344 C 345.40625 106.722656 348.492188 108.265625 351.578125 108.265625 C 354.664062 108.265625 358.261719 106.722656 359.804688 104.152344 C 360.320312 103.636719 408.660156 38.300781 558.316406 79.96875 C 590.199219 88.714844 624.140625 95.40625 659.625 100.035156 L 659.625 121.128906 Z M 660.65625 121.128906 " fill-opacity="1" fill-rule="nonzero"/></g><path fill="#000000" d="M 609.226562 324.339844 C 594.3125 321.253906 579.398438 317.652344 564.484375 313.535156 C 506.375 297.589844 454.945312 295.53125 412.777344 308.90625 C 407.121094 310.449219 404.546875 316.109375 406.089844 321.769531 C 407.632812 327.425781 413.289062 330.515625 418.949219 328.457031 C 457.519531 316.625 504.832031 318.167969 559.34375 333.085938 C 574.769531 337.203125 590.199219 340.804688 605.628906 343.890625 C 606.140625 343.890625 607.171875 343.890625 607.683594 343.890625 C 612.3125 343.890625 616.941406 340.289062 617.96875 335.660156 C 618.484375 330.515625 614.882812 325.367188 609.226562 324.339844 Z M 609.226562 324.339844 " fill-opacity="1" fill-rule="nonzero"/><path fill="#000000" d="M 412.777344 154.566406 C 408.660156 156.109375 405.578125 159.710938 405.578125 164.34375 L 405.578125 267.234375 C 405.578125 270.320312 407.121094 273.410156 409.691406 275.464844 C 412.261719 277.523438 415.863281 278.039062 418.949219 277.007812 C 457.519531 265.175781 504.832031 266.71875 559.34375 281.640625 C 574.769531 285.753906 590.199219 289.355469 605.628906 292.445312 C 606.140625 292.445312 607.171875 292.445312 607.683594 292.445312 C 610.257812 292.445312 612.3125 291.414062 614.371094 289.871094 C 616.941406 287.8125 617.96875 285.242188 617.96875 282.152344 L 617.96875 179.261719 C 617.96875 174.117188 614.371094 170 609.742188 168.972656 C 594.828125 165.886719 579.914062 162.285156 565 158.167969 C 506.375 142.734375 454.945312 141.191406 412.777344 154.566406 Z M 504.316406 250.257812 C 494.03125 249.230469 484.257812 248.714844 474.488281 248.714844 C 457.519531 248.714844 441.0625 250.257812 426.148438 253.859375 L 426.148438 223.503906 C 449.289062 217.332031 475.515625 216.304688 504.832031 219.390625 L 504.832031 250.257812 Z M 524.886719 171.03125 C 535.6875 173.089844 547.515625 175.660156 558.828125 178.746094 C 571.171875 182.347656 584.027344 185.433594 596.886719 188.007812 L 596.886719 218.359375 C 586.085938 215.789062 575.285156 213.214844 564.484375 210.644531 C 551.113281 207.042969 537.742188 203.957031 524.886719 201.898438 Z M 524.886719 222.476562 C 535.6875 224.535156 547.515625 227.105469 558.828125 230.195312 C 571.171875 233.792969 584.027344 236.882812 596.886719 239.453125 L 596.886719 269.808594 C 586.085938 267.234375 575.285156 264.664062 564.484375 261.574219 C 551.113281 257.972656 537.742188 254.886719 524.886719 252.828125 Z M 504.316406 198.8125 C 476.03125 195.726562 449.804688 196.753906 425.632812 202.414062 L 425.632812 172.058594 C 448.773438 165.886719 475.003906 164.855469 504.316406 167.945312 Z M 504.316406 198.8125 " fill-opacity="1" fill-rule="nonzero"/><path fill="#000000" d="M 97.015625 344.402344 C 97.527344 344.402344 98.558594 344.402344 99.070312 344.402344 C 114.5 341.316406 129.925781 337.714844 145.355469 333.601562 C 199.867188 318.167969 246.667969 316.625 285.238281 328.457031 C 290.894531 330 296.550781 326.914062 298.09375 321.769531 C 299.636719 316.109375 296.550781 310.449219 291.410156 308.90625 C 249.238281 295.53125 197.8125 297.589844 139.699219 313.535156 C 124.785156 317.652344 109.871094 321.253906 94.957031 324.339844 C 89.300781 325.367188 85.699219 331.027344 86.730469 336.6875 C 87.757812 341.316406 91.871094 344.402344 97.015625 344.402344 Z M 97.015625 344.402344 " fill-opacity="1" fill-rule="nonzero"/><path fill="#000000" d="M 97.015625 292.957031 C 97.527344 292.957031 98.558594 292.957031 99.070312 292.957031 C 114.5 289.871094 129.925781 286.269531 145.355469 282.152344 C 199.867188 266.71875 246.667969 265.175781 285.238281 277.007812 C 288.324219 278.039062 291.921875 277.523438 294.492188 275.464844 C 297.066406 273.410156 298.609375 270.320312 298.609375 267.234375 L 298.609375 164.34375 C 298.609375 159.710938 295.523438 155.597656 291.410156 154.566406 C 249.238281 141.191406 197.8125 142.734375 139.699219 159.199219 C 124.785156 163.3125 109.871094 166.914062 94.957031 170 C 90.328125 171.03125 86.730469 175.144531 86.730469 180.289062 L 86.730469 283.183594 C 86.730469 286.269531 88.269531 289.355469 90.328125 290.898438 C 92.386719 292.445312 94.441406 292.957031 97.015625 292.957031 Z M 107.300781 188.007812 C 120.15625 185.433594 132.5 182.347656 145.355469 178.746094 C 196.78125 164.34375 241.523438 162.285156 278.550781 172.058594 L 278.550781 253.859375 C 238.953125 244.597656 192.152344 247.683594 139.699219 262.089844 C 128.898438 265.175781 118.097656 267.75 107.300781 270.320312 Z M 107.300781 188.007812 " fill-opacity="1" fill-rule="nonzero"/><path fill="#000000" d="M 609.226562 370.640625 C 594.3125 367.554688 579.398438 363.953125 564.484375 359.839844 C 506.375 343.890625 454.945312 342.347656 412.777344 355.207031 C 407.121094 356.75 404.546875 362.410156 406.089844 368.070312 C 407.632812 373.726562 413.289062 376.300781 418.949219 374.757812 C 457.519531 362.925781 504.832031 364.46875 559.34375 379.386719 C 574.769531 383.503906 590.199219 387.105469 605.628906 390.191406 C 606.140625 390.191406 607.171875 390.191406 607.683594 390.191406 C 612.3125 390.191406 616.941406 386.589844 617.96875 381.960938 C 618.484375 376.816406 614.882812 371.671875 609.226562 370.640625 Z M 609.226562 370.640625 " fill-opacity="1" fill-rule="nonzero"/><path fill="#000000" d="M 285.238281 374.757812 C 290.894531 376.300781 296.550781 373.214844 298.09375 368.070312 C 299.636719 362.410156 296.550781 356.75 291.410156 355.207031 C 249.238281 342.347656 197.8125 343.890625 139.699219 359.839844 C 124.785156 363.953125 109.871094 367.554688 94.957031 370.640625 C 89.300781 371.671875 85.699219 377.328125 86.730469 382.988281 C 87.757812 388.132812 91.871094 391.21875 97.015625 391.21875 C 97.527344 391.21875 98.558594 391.21875 99.070312 391.21875 C 114.5 388.132812 129.925781 384.53125 145.355469 380.417969 C 199.867188 364.46875 246.667969 362.925781 285.238281 374.757812 Z M 285.238281 374.757812 " fill-opacity="1" fill-rule="nonzero"/></svg>