<svg xmlns="http://www.w3.org/2000/svg" xmlns:xlink="http://www.w3.org/1999/xlink" width="940" zoomAndPan="magnify" viewBox="0 0 705 591.000005" height="788" preserveAspectRatio="xMidYMid meet" version="1.0"><defs><clipPath id="7b146e7b6d"><path d="M 39.976562 26.28125 L 474 26.28125 L 474 566 L 39.976562 566 Z M 39.976562 26.28125 " clip-rule="nonzero"/></clipPath><clipPath id="14aecafae2"><path d="M 440 41 L 645.699219 41 L 645.699219 266 L 440 266 Z M 440 41 " clip-rule="nonzero"/></clipPath></defs><g clip-path="url(#7b146e7b6d)"><path fill="#000000" d="M 472.066406 358.136719 C 474.238281 354.894531 473.367188 350.503906 470.125 348.332031 C 466.882812 346.160156 462.492188 347.03125 460.320312 350.273438 C 455.949219 356.765625 451.175781 363.015625 446.039062 368.992188 C 440.945312 374.917969 435.476562 380.5625 429.675781 385.890625 L 429.667969 385.882812 C 428.144531 387.277344 427.371094 389.1875 427.371094 391.101562 L 427.371094 524.351562 C 427.371094 539.394531 415.054688 551.734375 399.988281 551.734375 L 223.46875 551.734375 C 217.902344 551.734375 213.320312 547.152344 213.320312 541.585938 L 213.320312 499.039062 C 213.320312 495.125 210.144531 491.949219 206.226562 491.949219 L 147.882812 491.949219 C 135.621094 491.949219 124.464844 486.925781 116.375 478.835938 C 108.285156 470.746094 103.261719 459.589844 103.261719 447.328125 L 103.261719 386.191406 C 103.261719 382.277344 100.089844 379.101562 96.171875 379.101562 L 65.46875 379.101562 C 63.050781 379.101562 60.171875 378.09375 57.75 376.535156 C 57.105469 376.117188 53.765625 373.429688 54.1875 372.78125 L 102.121094 298.386719 L 102.132812 298.394531 C 103.375 296.46875 103.5625 294.164062 102.847656 292.160156 C 100.519531 283.714844 98.734375 275.046875 97.53125 266.203125 C 96.34375 257.449219 95.726562 248.417969 95.726562 239.136719 C 95.726562 229.851562 96.34375 220.816406 97.53125 212.058594 C 98.734375 203.21875 100.519531 194.550781 102.847656 186.101562 C 102.96875 185.765625 103.066406 185.417969 103.136719 185.0625 C 114.058594 146.230469 136.476562 112.191406 166.488281 86.84375 C 196.21875 61.738281 233.402344 45.179688 274.234375 40.964844 C 278.117188 40.570312 280.945312 37.09375 280.546875 33.210938 C 280.152344 29.328125 276.679688 26.5 272.792969 26.898438 C 229.03125 31.414062 189.195312 49.152344 157.351562 76.042969 C 125.269531 103.132812 101.289062 139.539062 89.566406 181.101562 C 89.398438 181.527344 89.273438 181.980469 89.191406 182.445312 C 86.710938 191.457031 84.804688 200.714844 83.519531 210.175781 C 82.21875 219.738281 81.546875 229.410156 81.546875 239.136719 C 81.546875 248.855469 82.21875 258.523438 83.519531 268.089844 C 84.6875 276.6875 86.371094 285.121094 88.527344 293.359375 L 42.277344 365.136719 C 40.6875 367.605469 39.976562 370.183594 39.976562 372.769531 C 39.976562 379.507812 44.757812 384.992188 50.109375 388.441406 C 54.671875 391.382812 60.378906 393.28125 65.46875 393.28125 L 89.082031 393.28125 L 89.082031 447.328125 C 89.082031 463.507812 95.699219 478.210938 106.347656 488.863281 C 117.003906 499.515625 131.707031 506.128906 147.886719 506.128906 L 199.136719 506.128906 L 199.136719 541.585938 C 199.136719 554.984375 210.070312 565.914062 223.46875 565.914062 L 399.988281 565.914062 C 422.847656 565.914062 441.550781 547.214844 441.550781 524.351562 L 441.550781 394.167969 C 446.878906 389.125 451.96875 383.789062 456.789062 378.183594 C 462.234375 371.847656 467.339844 365.152344 472.066406 358.136719 Z M 472.066406 358.136719 " fill-opacity="1" fill-rule="nonzero"/></g><path fill="#000000" d="M 315.179688 133.808594 C 335.566406 133.808594 354.027344 142.074219 367.386719 155.433594 C 380.746094 168.792969 389.011719 187.253906 389.011719 207.636719 C 389.011719 228.023438 380.746094 246.484375 367.386719 259.84375 C 354.027344 273.203125 335.566406 281.46875 315.179688 281.46875 C 294.792969 281.46875 276.335938 273.203125 262.976562 259.84375 C 249.617188 246.484375 241.351562 228.023438 241.351562 207.636719 C 241.351562 187.253906 249.617188 168.792969 262.976562 155.433594 C 276.335938 142.074219 294.792969 133.808594 315.179688 133.808594 Z M 357.359375 165.460938 C 346.566406 154.667969 331.652344 147.988281 315.179688 147.988281 C 298.707031 147.988281 283.792969 154.667969 273 165.460938 C 262.207031 176.253906 255.53125 191.167969 255.53125 207.636719 C 255.53125 224.109375 262.207031 239.023438 273 249.816406 C 283.792969 260.613281 298.707031 267.289062 315.179688 267.289062 C 331.652344 267.289062 346.566406 260.609375 357.359375 249.816406 C 368.15625 239.023438 374.832031 224.109375 374.832031 207.636719 C 374.832031 191.167969 368.152344 176.253906 357.359375 165.460938 Z M 357.359375 165.460938 " fill-opacity="1" fill-rule="nonzero"/><path fill="#000000" d="M 354.890625 102.171875 C 366.398438 106.507812 377.121094 112.722656 386.617188 120.527344 L 405.019531 115.855469 C 429.1875 109.730469 436.308594 116.546875 449.480469 139.359375 C 453.429688 146.199219 453.261719 153.125 450.644531 159.785156 C 448.394531 165.515625 444.269531 170.910156 439.566406 175.738281 L 426.363281 189.296875 C 426.746094 191.648438 427.058594 194.082031 427.304688 196.589844 C 427.675781 200.382812 427.867188 204.074219 427.867188 207.640625 C 427.867188 211.210938 427.675781 214.90625 427.304688 218.699219 C 427.058594 221.207031 426.746094 223.636719 426.363281 225.984375 L 439.566406 239.539062 C 444.269531 244.371094 448.394531 249.765625 450.644531 255.496094 C 453.253906 262.136719 453.375 270.253906 449.234375 276.34375 C 446.800781 280.558594 443.78125 286.753906 441.042969 290.484375 C 433.109375 303.285156 417.726562 302.644531 405.019531 299.421875 L 386.617188 294.753906 C 381.875 298.652344 376.8125 302.167969 371.492188 305.246094 C 366.207031 308.300781 360.65625 310.9375 354.890625 313.113281 L 349.757812 331.292969 C 347.925781 337.78125 345.316406 344.050781 341.480469 348.863281 C 337.003906 354.480469 331.085938 358.101562 323.203125 358.101562 L 307.15625 358.101562 C 299.269531 358.101562 293.355469 354.480469 288.878906 348.863281 C 285.042969 344.046875 282.433594 337.78125 280.605469 331.292969 L 275.46875 313.109375 C 269.703125 310.933594 264.152344 308.296875 258.863281 305.238281 C 253.542969 302.164062 248.484375 298.652344 243.742188 294.753906 L 225.34375 299.421875 C 219.636719 300.871094 211.398438 302.183594 205.59375 300.964844 C 188.457031 298.144531 173.867188 270.378906 179.714844 255.496094 C 181.96875 249.761719 186.09375 244.371094 190.796875 239.539062 L 204 225.980469 C 203.015625 219.921875 202.492188 213.785156 202.492188 207.640625 C 202.492188 201.472656 203.015625 195.371094 204 189.300781 L 190.796875 175.742188 C 186.09375 170.910156 181.96875 165.519531 179.714844 159.785156 C 177.097656 153.125 176.933594 146.203125 180.878906 139.367188 L 180.863281 139.359375 C 180.972656 139.164062 181.09375 138.976562 181.222656 138.796875 L 188.90625 125.488281 C 192.863281 118.628906 198.941406 115.308594 206.015625 114.242188 C 212.101562 113.328125 218.820312 114.203125 225.34375 115.855469 L 243.742188 120.527344 C 248.484375 116.628906 253.542969 113.117188 258.863281 110.042969 C 264.152344 106.984375 269.703125 104.347656 275.46875 102.171875 L 280.605469 83.988281 C 282.433594 77.5 285.042969 71.230469 288.878906 66.417969 C 293.355469 60.796875 299.273438 57.179688 307.15625 57.179688 L 323.203125 57.179688 C 331.085938 57.179688 337.003906 60.796875 341.480469 66.417969 C 345.316406 71.230469 347.925781 77.496094 349.757812 83.988281 Z M 347.210938 114.445312 C 344.890625 113.8125 342.949219 112.011719 342.25 109.53125 L 342.257812 109.515625 L 336.128906 87.808594 C 334.753906 82.933594 332.917969 78.382812 330.402344 75.222656 C 328.527344 72.875 326.175781 71.359375 323.203125 71.359375 L 307.15625 71.359375 C 304.179688 71.359375 301.832031 72.871094 299.957031 75.222656 C 297.441406 78.378906 295.605469 82.933594 294.230469 87.808594 L 288.222656 109.097656 C 287.710938 111.453125 286.015625 113.488281 283.5625 114.320312 L 283.558594 114.308594 C 277.382812 116.398438 271.488281 119.082031 265.953125 122.28125 C 260.476562 125.449219 255.34375 129.113281 250.621094 133.210938 C 248.914062 134.976562 246.332031 135.800781 243.78125 135.152344 L 243.785156 135.144531 L 221.910156 129.59375 C 216.988281 128.34375 212.117188 127.65625 208.121094 128.257812 C 205.117188 128.707031 202.613281 129.976562 201.144531 132.519531 L 193.441406 145.863281 C 193.351562 146.0625 193.25 146.257812 193.140625 146.449219 L 193.121094 146.449219 C 191.644531 149.007812 191.789062 151.8125 192.898438 154.636719 C 194.375 158.390625 197.398438 162.253906 200.933594 165.882812 L 216.289062 181.652344 C 218.125 183.269531 219.074219 185.792969 218.566406 188.363281 L 218.558594 188.359375 C 217.277344 194.8125 216.671875 201.070312 216.671875 207.640625 C 216.671875 214.109375 217.261719 220.28125 218.5 226.625 C 219.054688 228.917969 218.453125 231.429688 216.691406 233.242188 L 216.675781 233.230469 L 200.933594 249.398438 C 197.402344 253.027344 194.375 256.890625 192.898438 260.644531 C 190.550781 266.613281 199.148438 285.511719 207.820312 286.980469 L 208.121094 287.015625 L 208.121094 287.023438 C 212.117188 287.621094 216.984375 286.933594 221.910156 285.6875 L 243.402344 280.234375 C 245.6875 279.519531 248.277344 279.976562 250.203125 281.671875 L 250.191406 281.691406 C 255.03125 285.941406 260.3125 289.738281 265.957031 293 C 271.367188 296.128906 277.125 298.761719 283.152344 300.835938 C 285.472656 301.46875 287.414062 303.265625 288.113281 305.75 L 288.101562 305.765625 L 294.230469 327.472656 C 295.605469 332.347656 297.441406 336.898438 299.957031 340.054688 C 301.832031 342.40625 304.183594 343.921875 307.15625 343.921875 L 323.203125 343.921875 C 326.175781 343.921875 328.527344 342.40625 330.402344 340.054688 C 332.917969 336.898438 334.753906 332.347656 336.128906 327.472656 L 342.136719 306.191406 C 342.644531 303.832031 344.347656 301.792969 346.796875 300.964844 L 346.800781 300.976562 C 352.976562 298.886719 358.867188 296.207031 364.402344 293.003906 C 369.878906 289.835938 375.015625 286.167969 379.738281 282.070312 C 381.449219 280.304688 384.027344 279.480469 386.578125 280.125 L 386.578125 280.136719 L 408.453125 285.6875 C 413.832031 287.050781 424.90625 289.359375 428.96875 283.15625 C 432.089844 276.789062 440.59375 268.621094 437.460938 260.644531 C 435.988281 256.890625 432.964844 253.027344 429.429688 249.398438 L 414.074219 233.628906 C 412.238281 232.011719 411.289062 229.488281 411.796875 226.917969 L 411.804688 226.917969 C 412.453125 223.65625 412.933594 220.46875 413.234375 217.371094 C 413.53125 214.328125 413.6875 211.082031 413.6875 207.640625 C 413.6875 204.199219 413.53125 200.957031 413.234375 197.917969 C 412.941406 194.910156 412.480469 191.816406 411.859375 188.652344 C 411.308594 186.363281 411.90625 183.847656 413.671875 182.035156 L 413.6875 182.050781 L 429.429688 165.882812 C 432.960938 162.253906 435.988281 158.390625 437.460938 154.636719 C 438.570312 151.8125 438.714844 149.007812 437.238281 146.449219 L 429.460938 132.972656 C 427.507812 130.117188 426.269531 128.933594 422.542969 128.300781 C 417.628906 127.675781 413.238281 128.378906 408.453125 129.59375 L 386.960938 135.046875 C 384.675781 135.761719 382.085938 135.300781 380.15625 133.605469 L 380.171875 133.589844 C 370.542969 125.132812 359.332031 118.609375 347.210938 114.445312 Z M 347.210938 114.445312 " fill-opacity="1" fill-rule="nonzero"/><path fill="#000000" d="M 542.742188 97.402344 C 558.164062 97.402344 572.128906 103.652344 582.234375 113.757812 C 592.339844 123.863281 598.59375 137.828125 598.59375 153.25 C 598.59375 168.671875 592.339844 182.636719 582.234375 192.742188 C 572.128906 202.847656 558.164062 209.101562 542.742188 209.101562 C 527.320312 209.101562 513.355469 202.847656 503.25 192.742188 C 493.144531 182.636719 486.890625 168.671875 486.890625 153.25 C 486.890625 137.828125 493.144531 123.863281 503.25 113.757812 C 513.355469 103.652344 527.320312 97.402344 542.742188 97.402344 Z M 572.207031 123.785156 C 564.667969 116.246094 554.25 111.582031 542.742188 111.582031 C 531.234375 111.582031 520.816406 116.246094 513.277344 123.785156 C 505.734375 131.324219 501.070312 141.742188 501.070312 153.25 C 501.070312 164.757812 505.734375 175.175781 513.277344 182.714844 C 520.816406 190.253906 531.234375 194.921875 542.742188 194.921875 C 554.25 194.921875 564.667969 190.253906 572.207031 182.714844 C 579.746094 175.175781 584.410156 164.757812 584.410156 153.25 C 584.410156 141.742188 579.746094 131.324219 572.207031 123.785156 Z M 572.207031 123.785156 " fill-opacity="1" fill-rule="nonzero"/><g clip-path="url(#14aecafae2)"><path fill="#000000" d="M 573.328125 74.757812 C 581.285156 77.863281 588.730469 82.175781 595.390625 87.523438 L 607.914062 84.34375 C 612.894531 83.082031 618.054688 82.417969 622.78125 83.128906 C 628.503906 83.988281 633.433594 86.6875 636.648438 92.253906 L 642.511719 102.410156 C 645.730469 107.984375 645.605469 113.597656 643.488281 118.980469 C 641.738281 123.4375 638.574219 127.582031 634.980469 131.273438 L 626 140.496094 C 626.632812 144.726562 626.980469 148.953125 626.980469 153.25 C 626.980469 157.566406 626.632812 161.757812 626 166.007812 L 634.980469 175.230469 C 638.578125 178.921875 641.738281 183.070312 643.488281 187.519531 C 645.605469 192.902344 645.726562 198.519531 642.511719 204.09375 L 636.648438 214.246094 C 630.484375 224.917969 618.269531 224.785156 607.914062 222.15625 L 595.390625 218.980469 C 592.0625 221.652344 588.535156 224.074219 584.839844 226.207031 C 581.160156 228.335938 577.316406 230.1875 573.328125 231.746094 L 569.839844 244.105469 C 568.441406 249.066406 566.429688 253.875 563.449219 257.617188 C 559.824219 262.164062 555.023438 265.089844 548.601562 265.089844 L 536.878906 265.089844 C 530.460938 265.089844 525.65625 262.164062 522.03125 257.617188 C 519.054688 253.875 517.042969 249.066406 515.640625 244.105469 L 512.152344 231.746094 C 508.167969 230.1875 504.320312 228.332031 500.644531 226.207031 C 496.949219 224.070312 493.421875 221.652344 490.09375 218.980469 L 477.570312 222.15625 C 467.167969 224.792969 454.992188 224.90625 448.835938 214.246094 L 442.972656 204.09375 C 439.753906 198.519531 439.878906 192.902344 441.992188 187.519531 C 443.742188 183.066406 446.90625 178.917969 450.5 175.230469 L 459.480469 166.003906 C 458.851562 161.773438 458.5 157.546875 458.5 153.25 C 458.5 148.941406 458.847656 144.742188 459.480469 140.496094 L 450.5 131.273438 C 446.90625 127.582031 443.746094 123.4375 441.992188 118.980469 C 437.707031 108.074219 443.777344 101.015625 448.835938 92.253906 C 454.996094 81.582031 467.210938 81.714844 477.570312 84.34375 L 490.09375 87.523438 C 493.421875 84.851562 496.949219 82.433594 500.640625 80.296875 C 504.316406 78.167969 508.164062 76.316406 512.152344 74.757812 L 515.644531 62.394531 C 517.042969 57.4375 519.054688 52.625 522.03125 48.886719 C 525.65625 44.339844 530.460938 41.414062 536.878906 41.414062 L 548.601562 41.414062 C 555.023438 41.414062 559.824219 44.339844 563.449219 48.886719 C 566.429688 52.625 568.4375 57.4375 569.839844 62.394531 Z M 565.644531 87.007812 C 563.320312 86.371094 561.378906 84.574219 560.679688 82.089844 L 560.6875 82.074219 L 556.210938 66.214844 C 555.265625 62.871094 554.03125 59.773438 552.371094 57.695312 C 551.351562 56.417969 550.113281 55.59375 548.601562 55.59375 L 536.878906 55.59375 C 535.367188 55.59375 534.128906 56.417969 533.109375 57.695312 C 531.453125 59.777344 530.214844 62.875 529.269531 66.214844 L 524.914062 81.652344 C 524.40625 84.011719 522.703125 86.050781 520.253906 86.882812 L 520.25 86.867188 C 515.851562 88.355469 511.664062 90.265625 507.730469 92.535156 C 503.875 94.765625 500.257812 97.339844 496.9375 100.210938 C 495.226562 101.96875 492.652344 102.789062 490.105469 102.144531 L 490.109375 102.132812 L 474.136719 98.078125 C 471.246094 97.347656 463.304688 95.484375 461.074219 99.34375 C 459.144531 102.691406 453.398438 109.3125 455.175781 113.832031 C 456.148438 116.308594 458.214844 118.929688 460.632812 121.414062 L 471.75 132.828125 C 473.585938 134.441406 474.535156 136.96875 474.027344 139.539062 L 474.019531 139.539062 C 473.105469 144.152344 472.679688 148.550781 472.679688 153.25 C 472.679688 157.839844 473.085938 162.15625 473.960938 166.660156 C 474.515625 168.953125 473.921875 171.472656 472.152344 173.289062 L 472.136719 173.277344 L 460.632812 185.089844 C 458.210938 187.578125 456.148438 190.195312 455.175781 192.671875 C 454.570312 194.214844 454.46875 195.710938 455.210938 197.003906 L 461.074219 207.15625 C 463.328125 211.054688 471.429688 209.105469 474.136719 208.421875 L 489.699219 204.472656 C 491.992188 203.746094 494.59375 204.203125 496.53125 205.902344 L 496.511719 205.921875 C 499.953125 208.941406 503.710938 211.644531 507.734375 213.96875 C 511.542969 216.167969 515.59375 218.027344 519.839844 219.496094 C 522.160156 220.128906 524.101562 221.925781 524.804688 224.410156 L 524.792969 224.425781 L 529.269531 240.285156 C 530.214844 243.628906 531.453125 246.726562 533.109375 248.808594 C 534.128906 250.085938 535.367188 250.910156 536.878906 250.910156 L 548.601562 250.910156 C 550.113281 250.910156 551.351562 250.085938 552.371094 248.808594 C 554.03125 246.726562 555.265625 243.628906 556.210938 240.285156 L 560.570312 224.84375 C 561.082031 222.488281 562.777344 220.457031 565.222656 219.625 L 565.230469 219.640625 C 569.625 218.148438 573.816406 216.242188 577.75 213.96875 C 581.605469 211.738281 585.222656 209.160156 588.546875 206.289062 C 590.253906 204.53125 592.832031 203.710938 595.375 204.359375 L 595.375 204.367188 L 611.347656 208.421875 C 614.238281 209.15625 622.175781 211.015625 624.40625 207.15625 L 630.269531 197.003906 C 631.015625 195.710938 630.910156 194.214844 630.304688 192.671875 C 629.332031 190.195312 627.269531 187.578125 624.847656 185.089844 L 613.730469 173.671875 C 611.894531 172.058594 610.945312 169.535156 611.457031 166.964844 L 611.464844 166.964844 C 612.386719 162.3125 612.800781 158 612.800781 153.25 C 612.800781 148.660156 612.398438 144.34375 611.523438 139.839844 C 610.964844 137.546875 611.5625 135.027344 613.328125 133.210938 L 613.34375 133.226562 L 624.847656 121.414062 C 627.269531 118.925781 629.332031 116.308594 630.304688 113.832031 C 630.910156 112.285156 631.015625 110.789062 630.269531 109.5 L 624.40625 99.34375 C 623.65625 98.046875 622.3125 97.386719 620.675781 97.140625 C 618.039062 96.742188 614.726562 97.222656 611.347656 98.078125 L 595.757812 102.035156 C 593.472656 102.75 590.882812 102.292969 588.953125 100.597656 L 588.96875 100.578125 C 582.152344 94.59375 574.214844 89.972656 565.644531 87.007812 Z M 565.644531 87.007812 " fill-opacity="1" fill-rule="nonzero"/></g></svg>