<svg xmlns="http://www.w3.org/2000/svg" xmlns:xlink="http://www.w3.org/1999/xlink" width="940" zoomAndPan="magnify" viewBox="0 0 705 591.000005" height="788" preserveAspectRatio="xMidYMid meet" version="1.0"><path fill="#000000" d="M 613.839844 461.617188 C 614.140625 456.5 610.058594 452.226562 605.085938 452.226562 L 510.375 452.226562 L 509.003906 84.566406 C 502.226562 43.640625 476.03125 21.589844 430.910156 19.042969 C 275.800781 19.25 159.269531 18.625 156.523438 19.5625 C 127.914062 16.515625 105.96875 39.71875 105.96875 66.410156 L 105.96875 113.753906 C 105.96875 116.125 107.886719 118.042969 110.261719 118.042969 L 189.558594 118.042969 C 189.386719 128.785156 189.230469 140.230469 189.402344 152.703125 L 189.402344 286.804688 C 172.183594 307.972656 163.804688 334.421875 165.925781 361.710938 C 167.839844 385.511719 177.851562 407.695312 193.792969 424.964844 C 194.207031 427.816406 194.789062 430.578125 195.316406 433.367188 L 172.914062 459.503906 L 172.222656 458.96875 C 167.242188 455.199219 159.855469 456.054688 156.078125 461.203125 L 95.097656 540.472656 C 89.261719 548.195312 90.632812 559.347656 98.363281 565.355469 L 103 568.785156 C 110.558594 574.789062 121.722656 573.246094 127.734375 565.527344 L 188.714844 486.082031 C 192.492188 481.105469 191.632812 473.898438 186.652344 470.125 L 185.28125 469.066406 L 199.8125 452.113281 C 200.722656 455.160156 200.589844 455.878906 201.53125 456.960938 C 217.273438 506.480469 250.386719 533.988281 300.363281 538.761719 C 348.847656 538.761719 362.097656 538.761719 539.757812 538.761719 C 586.339844 533.375 611.265625 507.421875 613.839844 461.617188 Z M 136.152344 536.871094 L 118.117188 559.519531 C 116.832031 561.058594 114.429688 561.703125 111.933594 560.207031 C 110.214844 558.660156 109.871094 555.917969 111.246094 554.027344 L 129.28125 531.382812 C 130.828125 529.664062 133.574219 529.320312 135.464844 530.695312 C 137.183594 532.234375 137.527344 534.984375 136.152344 536.871094 Z M 208.535156 451.707031 C 207.777344 449.292969 207.207031 446.738281 206.550781 444.25 L 210.324219 439.851562 C 234.164062 456.847656 263.996094 462.140625 283.765625 458.6875 C 289.296875 457.710938 287.929688 449.304688 282.257812 450.242188 C 281.335938 450.410156 280.410156 450.574219 279.253906 450.609375 C 225.128906 454.84375 178.78125 414.367188 174.480469 361.03125 C 170.324219 307.4375 210.449219 260.546875 264.175781 256.382812 C 338.96875 250.605469 391.398438 327.339844 360.074219 394.570312 C 350.738281 414.976562 334.449219 431.550781 314.210938 441.226562 C 312.074219 442.25 311.167969 444.8125 312.191406 446.949219 C 313.214844 449.085938 315.78125 449.980469 317.917969 448.96875 C 339.96875 438.417969 357.714844 420.363281 367.871094 398.164062 C 368.550781 396.707031 369.003906 395.171875 369.617188 393.6875 L 369.617188 394.542969 C 369.617188 396.914062 371.539062 398.832031 373.910156 398.832031 L 401.984375 398.832031 C 404.355469 398.832031 406.277344 396.914062 406.277344 394.542969 L 406.277344 275.777344 C 406.277344 273.40625 404.355469 271.488281 401.984375 271.488281 L 373.910156 271.488281 C 371.539062 271.488281 369.617188 273.40625 369.617188 275.777344 L 369.617188 312.605469 C 352.445312 271.34375 310.328125 244.113281 263.503906 247.835938 C 238.625 249.753906 215.714844 260.152344 197.992188 277.324219 L 197.992188 152.644531 C 197.164062 92.921875 203.484375 56.296875 185.707031 27.617188 L 430.667969 27.613281 C 472.125 29.96875 494.324219 48.507812 500.472656 85.285156 L 501.839844 452.226562 L 404.464844 452.226562 C 399.976562 452.226562 396.355469 455.726562 396.027344 460.363281 C 393.191406 500.753906 367.609375 523.601562 317.863281 530.195312 L 300.777344 530.199219 C 222.574219 522.707031 212.175781 455.964844 208.535156 451.707031 Z M 378.207031 390.253906 L 378.207031 280.066406 L 397.6875 280.066406 L 397.6875 390.253906 Z M 378.207031 390.253906 " fill-opacity="1" fill-rule="nonzero"/><path fill="#000000" d="M 344.398438 364.476562 C 351.492188 317.167969 312.375 276.632812 266.09375 280.328125 C 224.871094 283.503906 195.371094 319.128906 198.535156 359.136719 C 201.519531 397.730469 233.789062 426.859375 271.613281 426.839844 C 308.292969 426.839844 338.984375 400.5625 344.398438 364.476562 Z M 318.019531 390.253906 L 298.535156 390.253906 L 298.535156 313.394531 L 318.019531 313.394531 Z M 326.609375 387.835938 L 326.609375 319.460938 C 340.195312 341.238281 339.804688 366.746094 326.609375 387.835938 Z M 207.089844 358.46875 C 202.582031 300.421875 270.960938 266.761719 314.425781 304.816406 L 294.242188 304.816406 C 291.867188 304.816406 289.949219 306.734375 289.949219 309.105469 L 289.949219 394.542969 C 289.949219 396.914062 291.867188 398.832031 294.242188 398.832031 L 317.984375 398.832031 C 279.308594 438.121094 211.433594 414.265625 207.089844 358.46875 Z M 207.089844 358.46875 " fill-opacity="1" fill-rule="nonzero"/><path fill="#000000" d="M 387.941406 164.359375 C 385.570312 164.359375 383.648438 166.277344 383.648438 168.648438 C 383.648438 171.019531 385.570312 172.9375 387.941406 172.9375 L 430.347656 172.9375 C 432.722656 172.9375 434.640625 171.019531 434.640625 168.648438 C 434.640625 166.277344 432.722656 164.359375 430.347656 164.359375 Z M 387.941406 164.359375 " fill-opacity="1" fill-rule="nonzero"/><path fill="#000000" d="M 344.65625 198.941406 L 268.777344 198.941406 C 266.40625 198.941406 264.484375 200.859375 264.484375 203.230469 C 264.484375 205.601562 266.40625 207.523438 268.777344 207.523438 L 344.65625 207.523438 C 347.03125 207.523438 348.953125 205.601562 348.953125 203.230469 C 348.953125 200.859375 347.03125 198.941406 344.65625 198.941406 Z M 344.65625 198.941406 " fill-opacity="1" fill-rule="nonzero"/><path fill="#000000" d="M 347.632812 163.921875 L 271.757812 163.921875 C 269.382812 163.921875 267.460938 165.839844 267.460938 168.210938 C 267.460938 170.582031 269.382812 172.5 271.757812 172.5 L 347.632812 172.5 C 350.007812 172.5 351.929688 170.582031 351.929688 168.210938 C 351.929688 165.839844 350.007812 163.921875 347.632812 163.921875 Z M 347.632812 163.921875 " fill-opacity="1" fill-rule="nonzero"/><path fill="#000000" d="M 434.640625 203.230469 C 434.640625 200.859375 432.722656 198.941406 430.347656 198.941406 L 387.941406 198.941406 C 385.570312 198.941406 383.648438 200.859375 383.648438 203.230469 C 383.648438 205.601562 385.570312 207.523438 387.941406 207.523438 L 430.347656 207.523438 C 432.722656 207.523438 434.640625 205.601562 434.640625 203.230469 Z M 434.640625 203.230469 " fill-opacity="1" fill-rule="nonzero"/><path fill="#000000" d="M 252.636719 93.339844 C 253.554688 93.148438 254.667969 93.15625 255.417969 92.800781 C 261.609375 89.855469 261.574219 81.253906 257.515625 77.636719 C 253.328125 73.90625 247.214844 75.550781 239.0625 75.140625 C 236.601562 75.140625 235.085938 76.496094 235.085938 79.113281 L 235.085938 101.664062 C 235.085938 106.402344 240.359375 106.308594 241.972656 104.589844 C 242.628906 103.894531 242.953125 102.914062 242.953125 101.664062 L 242.953125 94.015625 L 245.3125 94.015625 C 248.695312 94.015625 248.28125 96.089844 252.324219 102.8125 C 253.460938 104.875 254.816406 105.636719 256.894531 105.636719 C 260.226562 105.636719 261.144531 103.15625 259.71875 100.550781 C 256.992188 95.992188 256.835938 93.753906 252.636719 93.339844 Z M 242.953125 88.46875 L 242.953125 81.164062 L 248.171875 81.164062 C 250.816406 81.164062 252.835938 82.117188 252.835938 84.792969 C 252.835938 89.890625 246.308594 88.140625 242.953125 88.46875 Z M 242.953125 88.46875 " fill-opacity="1" fill-rule="nonzero"/><path fill="#000000" d="M 283.875 105.25 C 284.898438 105.25 285.671875 104.992188 286.183594 104.480469 C 287.1875 103.476562 287.25 101.074219 286.183594 99.972656 C 285.671875 99.453125 284.898438 99.1875 283.875 99.1875 L 272.796875 99.1875 L 272.796875 92.996094 L 282.9375 92.996094 C 285 92.996094 286.015625 91.871094 286.015625 89.960938 C 286.015625 88.054688 285 86.929688 282.9375 86.929688 L 272.796875 86.929688 L 272.796875 81.207031 L 283.875 81.207031 C 285.945312 81.207031 286.953125 80.109375 286.953125 78.132812 C 286.953125 76.210938 285.933594 75.140625 283.875 75.140625 L 269.382812 75.140625 C 266.679688 75.140625 265.273438 76.597656 265.273438 79.195312 C 265.578125 100.195312 264.484375 102.367188 266.320312 104.203125 C 268.082031 105.960938 270.363281 104.96875 283.875 105.25 Z M 283.875 105.25 " fill-opacity="1" fill-rule="nonzero"/><path fill="#000000" d="M 294.777344 97.652344 C 290.683594 95.792969 288.285156 101.792969 292.210938 103.667969 C 297.234375 106.105469 306.617188 106.882812 311.621094 103.097656 C 316.015625 99.765625 315.992188 93.632812 313.027344 90.691406 C 310.121094 87.769531 305.191406 87.566406 301.875 86.667969 C 300.238281 86.320312 298.367188 85.785156 298.367188 84.113281 C 298.367188 80.277344 305.671875 80.6875 309.144531 82.230469 C 313.570312 84.082031 315.230469 78.390625 311.878906 76.632812 C 304.988281 72.59375 290.667969 74.375 290.667969 84.492188 C 290.667969 94.570312 303.425781 92.675781 306.597656 95.089844 C 307.625 95.855469 307.828125 97.492188 306.253906 98.523438 C 303.992188 100.03125 297.816406 99.089844 294.777344 97.652344 Z M 294.777344 97.652344 " fill-opacity="1" fill-rule="nonzero"/><path fill="#000000" d="M 323.042969 105.25 L 337.535156 105.25 C 339.589844 105.25 340.613281 104.199219 340.613281 102.21875 C 340.613281 100.277344 339.585938 99.1875 337.535156 99.1875 L 326.457031 99.1875 L 326.457031 92.996094 L 336.597656 92.996094 C 338.664062 92.996094 339.675781 91.871094 339.675781 89.960938 C 339.675781 88.054688 338.664062 86.929688 336.597656 86.929688 L 326.457031 86.929688 L 326.457031 81.207031 L 337.535156 81.207031 C 339.605469 81.207031 340.613281 80.109375 340.613281 78.132812 C 340.613281 76.210938 339.59375 75.140625 337.535156 75.140625 L 323.042969 75.140625 C 320.339844 75.140625 318.933594 76.597656 318.933594 79.195312 L 318.933594 101.195312 C 318.933594 103.792969 320.335938 105.25 323.042969 105.25 Z M 323.042969 105.25 " fill-opacity="1" fill-rule="nonzero"/><path fill="#000000" d="M 362.765625 77.957031 C 360.449219 73.257812 355.65625 73.992188 353.824219 77.957031 L 343.179688 100.851562 C 341.953125 103.636719 343.4375 105.636719 346.125 105.636719 C 347.929688 105.636719 348.945312 105.164062 350.191406 102.386719 L 351.570312 99.144531 L 365.015625 99.144531 L 366.394531 102.386719 C 367.496094 104.964844 368.671875 105.636719 370.671875 105.636719 C 373.316406 105.636719 374.792969 103.648438 373.40625 100.851562 Z M 358.226562 83.34375 L 358.3125 83.34375 L 362.449219 93.121094 L 354.128906 93.121094 Z M 358.226562 83.34375 " fill-opacity="1" fill-rule="nonzero"/><path fill="#000000" d="M 385.207031 101.664062 L 385.207031 94.015625 L 387.566406 94.015625 C 390.949219 94.015625 390.535156 96.089844 394.578125 102.8125 C 395.113281 103.785156 395.734375 104.496094 396.429688 104.949219 C 398.480469 106.289062 402.519531 105.878906 402.613281 102.964844 C 402.636719 102.183594 402.425781 101.382812 401.972656 100.550781 C 399.246094 95.992188 399.089844 93.753906 394.890625 93.339844 C 395.808594 93.148438 396.921875 93.15625 397.671875 92.800781 C 400.988281 91.226562 402.570312 88.234375 402.570312 84.582031 C 402.570312 78.296875 398.292969 75.140625 391.835938 75.140625 L 381.316406 75.140625 C 378.855469 75.140625 377.339844 76.496094 377.339844 79.113281 L 377.339844 101.664062 C 377.339844 104.101562 378.703125 105.636719 381.273438 105.636719 C 383.910156 105.636719 385.207031 104.160156 385.207031 101.664062 Z M 385.207031 81.164062 L 390.425781 81.164062 C 393.070312 81.164062 395.089844 82.117188 395.089844 84.792969 C 395.089844 89.890625 388.5625 88.140625 385.207031 88.46875 Z M 385.207031 81.164062 " fill-opacity="1" fill-rule="nonzero"/><path fill="#000000" d="M 422.539062 105.722656 C 426.507812 105.722656 433.128906 104.347656 432.460938 100.234375 C 432.089844 98.105469 430.25 96.660156 427.757812 97.738281 C 423.492188 99.757812 417.769531 99.355469 415.746094 94.9375 C 414.53125 92.328125 414.527344 88.023438 415.746094 85.4375 C 417.824219 80.964844 423.507812 80.664062 428.015625 82.738281 C 431.003906 84.265625 433.257812 80.667969 432.035156 78.089844 C 429.390625 72.671875 406.554688 71.429688 406.554688 90.171875 C 406.554688 99.484375 412.34375 105.722656 422.539062 105.722656 Z M 422.539062 105.722656 " fill-opacity="1" fill-rule="nonzero"/><path fill="#000000" d="M 443.617188 104.589844 C 445.265625 102.839844 444.390625 100.019531 444.597656 93.203125 L 457.042969 93.203125 L 457.042969 101.625 C 457.042969 104.171875 458.394531 105.636719 460.976562 105.636719 C 463.472656 105.636719 464.871094 104.199219 464.871094 101.625 C 464.582031 80.0625 465.648438 77.605469 463.863281 75.777344 C 463.191406 75.097656 462.226562 74.753906 460.976562 74.753906 C 458.328125 74.753906 457.042969 76.234375 457.042969 78.769531 L 457.042969 86.761719 L 444.597656 86.761719 L 444.597656 78.769531 C 444.597656 77.460938 444.261719 76.464844 443.589844 75.777344 C 442.277344 74.429688 439.167969 74.375 437.761719 75.777344 C 435.964844 77.574219 437.039062 79.191406 436.730469 101.625 C 436.730469 106.402344 441.992188 106.316406 443.617188 104.589844 Z M 443.617188 104.589844 " fill-opacity="1" fill-rule="nonzero"/><path fill="#000000" d="M 440.691406 243.121094 L 440.691406 394.542969 C 440.691406 396.914062 442.609375 398.832031 444.984375 398.832031 L 473.054688 398.832031 C 475.429688 398.832031 477.347656 396.914062 477.347656 394.542969 L 477.347656 243.121094 C 477.347656 240.75 475.429688 238.832031 473.054688 238.832031 L 444.984375 238.832031 C 442.609375 238.832031 440.691406 240.75 440.691406 243.121094 Z M 449.277344 247.410156 L 468.761719 247.410156 L 468.761719 390.253906 L 449.277344 390.253906 Z M 449.277344 247.410156 " fill-opacity="1" fill-rule="nonzero"/></svg>